<?xml version="1.0" encoding="utf-8"?>
<!-- Generator: Adobe Illustrator 19.2.0, SVG Export Plug-In . SVG Version: 6.00 Build 0)  -->
<svg version="1.1" id="Layer_1" xmlns="http://www.w3.org/2000/svg" xmlns:xlink="http://www.w3.org/1999/xlink" x="0px" y="0px"
	 viewBox="0 0 465.4 120.1" style="enable-background:new 0 0 465.4 120.1;" xml:space="preserve">
<style type="text/css">
	.st0{fill:#6C6C6C;}
	.st1{fill:#2B3087;}
	.st2{fill:#FFE500;}
	.st3{fill:#3C7B31;}
	.st4{fill:#64ABDD;}
	.st5{fill:#00973A;}
	.st6{fill:#79B729;}
	.st7{fill:#A0CEEB;}
	.st8{fill:#FFFFFF;}
</style>
<path class="st0" d="M44.9,33c-1.7-1.8-1.1-3.2,1.3-3.2l15.5,0.1c2.5,0,3.1,1.4,1.3,3.2l-6.4,7.3c-1.7,1.7-3.3,1.7-5-0.1L44.9,33"/>
<path class="st1" d="M51,111.4c-2.1-2.1-1.3-3.8,1.6-3.8h18.5c2.9,0,3.7,1.7,1.6,3.8l-8.2,7.2c-2.1,2.1-3.4,2.1-5.5,0L51,111.4"/>
<g>
	<path class="st2" d="M38,0c6.5,0,11.9,5.3,11.9,11.9c0,6.5-5.3,11.8-11.9,11.9c-6.5,0-11.8-5.3-11.9-11.9C26.2,5.3,31.5,0,38,0"/>
	<path class="st2" d="M3.2,97.4c-2.1,2.1-1.4,3.9,1.6,4.1h21.3v-25L3.2,97.4"/>
</g>
<path class="st3" d="M26.1,104.8c0,2.9,1.7,3.7,3.8,1.6l5.1-4.9h-8.9V104.8"/>
<path class="st4" d="M11.5,34.8C9.6,32.9,8,33.6,8,36.2v44.9c0,2.7,1.5,3.3,3.4,1.4L26,68.7V46.9L11.5,34.8z"/>
<path class="st3" d="M53,51.8L29.9,30.9c-2.1-2.1-3.9-1.3-3.9,1.6v14.3l8.5,7c1.9,1.9,1.9,4.9,0,6.8l-8.5,8v7.8L53,51.8"/>
<path class="st5" d="M34.5,53.9l-8.5-7v21.8l8.5-8C36.4,58.8,36.4,55.8,34.5,53.9"/>
<path class="st6" d="M66.3,63.8L53,51.8L26.1,76.5v25H35l31.3-30.2C68.4,69.2,68.4,65.8,66.3,63.8"/>
<path class="st2" d="M66.4,77.5h13.5v-45c-0.1-2.9-1.9-3.6-4-1.6L53,51.8l13.3,12c2.1,2.1,2.1,5.5,0,7.5L35,101.5h40
	c2.8,0.1,4.8-1.8,4.9-4.5L65,80.8C63.2,78.9,63.9,77.5,66.4,77.5"/>
<path class="st7" d="M113.6,77.5H79.9v19c0,0.2,0,0.3,0,0.5l6.6,7.3c1.8,1.8,4.7,1.8,6.5,0l22-23.5
	C116.7,78.9,116.1,77.5,113.6,77.5"/>
<path class="st6" d="M79.9,77.5H66.4c-2.5,0-3.2,1.5-1.4,3.3L79.8,97c0-0.2,0-0.3,0-0.5L79.9,77.5"/>
<g>
	<path class="st8" d="M122.8,28.9v-23h9.9c1.1,0,2.2,0.2,3.1,0.7c1,0.5,1.8,1.1,2.5,1.8c0.7,0.7,1.2,1.6,1.6,2.6
		c0.4,1,0.6,1.9,0.6,2.9c0,1-0.2,2-0.6,3c-0.4,1-0.9,1.8-1.5,2.6c-0.7,0.7-1.5,1.3-2.4,1.8c-0.9,0.4-2,0.7-3.1,0.7h-3.8v7.1H122.8z
		 M129.1,16.3h3.3c0.4,0,0.8-0.2,1.1-0.5c0.3-0.4,0.5-1,0.5-1.9c0-1-0.2-1.6-0.6-1.9c-0.4-0.3-0.8-0.5-1.2-0.5h-3.2V16.3z"/>
	<path class="st8" d="M142.4,28.9v-23h6.3v17.5h10.4v5.5H142.4z"/>
	<path class="st8" d="M166.8,5.9h5.8l8,23h-6.4l-1.4-4.5h-6.1l-1.4,4.5h-6.5L166.8,5.9z M171.7,20.2l-2-7.1l-2.1,7.1H171.7z"/>
	<path class="st8" d="M197.8,11.4h-6.6v17.5h-6.3V11.4h-6.7V5.9h19.6V11.4z"/>
	<path class="st8" d="M203.4,5.9h5.8l8,23h-6.4l-1.4-4.5h-6.1l-1.4,4.5h-6.5L203.4,5.9z M208.3,20.2l-2-7.1l-2.1,7.1H208.3z"/>
	<path class="st8" d="M218.5,28.9v-23h15.8v5.5h-9.5v3.8h7.7v5.1h-7.7v8.6H218.5z"/>
	<path class="st8" d="M246.3,29.1c-1.8,0-3.3-0.3-4.8-1s-2.6-1.6-3.7-2.6c-1-1.1-1.8-2.3-2.4-3.7c-0.6-1.4-0.8-2.9-0.8-4.3
		c0-1.5,0.3-3,0.9-4.4s1.4-2.6,2.5-3.7c1-1.1,2.3-1.9,3.7-2.6s3-1,4.7-1c1.8,0,3.3,0.3,4.8,1c1.4,0.7,2.7,1.6,3.7,2.7
		c1,1.1,1.8,2.4,2.4,3.8s0.8,2.8,0.8,4.3c0,1.5-0.3,3-0.9,4.4c-0.6,1.4-1.4,2.6-2.4,3.7c-1,1.1-2.3,1.9-3.7,2.6
		C249.6,28.8,248,29.1,246.3,29.1z M241.1,17.4c0,0.8,0.1,1.5,0.3,2.3c0.2,0.7,0.5,1.4,1,1.9c0.4,0.6,1,1,1.6,1.4
		c0.7,0.3,1.4,0.5,2.4,0.5c0.9,0,1.7-0.2,2.4-0.5c0.7-0.4,1.2-0.8,1.6-1.4s0.7-1.2,0.9-2c0.2-0.7,0.3-1.5,0.3-2.2
		c0-0.8-0.1-1.5-0.3-2.3c-0.2-0.7-0.5-1.4-1-1.9c-0.4-0.6-1-1-1.7-1.3c-0.7-0.3-1.4-0.5-2.3-0.5c-0.9,0-1.7,0.2-2.4,0.5
		c-0.7,0.3-1.2,0.8-1.6,1.4s-0.8,1.2-1,1.9C241.2,15.9,241.1,16.7,241.1,17.4z"/>
	<path class="st8" d="M260.2,28.9v-23h10.6c1.1,0,2.2,0.2,3.1,0.7c1,0.5,1.8,1.1,2.5,1.8c0.7,0.7,1.2,1.6,1.6,2.6
		c0.4,1,0.6,1.9,0.6,2.9c0,1.3-0.3,2.6-0.9,3.7c-0.6,1.2-1.4,2.1-2.4,2.8l4.9,8.5H273l-4.1-7.1h-2.4v7.1H260.2z M266.5,16.3h4
		c0.4,0,0.8-0.2,1.1-0.6c0.3-0.4,0.5-1,0.5-1.8c0-0.8-0.2-1.4-0.6-1.8c-0.4-0.4-0.8-0.6-1.2-0.6h-3.8V16.3z"/>
	<path class="st8" d="M299,28.9V16.8l-3.9,8.5h-3.4l-3.9-8.5v12.1h-6.3v-23h6.9l5,10.8l5-10.8h6.9v23H299z"/>
	<path class="st8" d="M314.7,5.9h5.8l8,23H322l-1.4-4.5h-6.1l-1.4,4.5h-6.5L314.7,5.9z M319.6,20.2l-2-7.1l-2.1,7.1H319.6z"/>
	<path class="st8" d="M122.8,64.9v-23h8.9c1.9,0,3.6,0.3,5,0.9c1.4,0.6,2.7,1.4,3.6,2.5c1,1,1.7,2.3,2.2,3.7
		c0.5,1.4,0.7,2.9,0.7,4.5c0,1.8-0.3,3.3-0.8,4.8c-0.6,1.4-1.3,2.6-2.4,3.6c-1,1-2.2,1.8-3.7,2.3c-1.4,0.6-3,0.8-4.8,0.8H122.8z
		 M136.8,53.4c0-0.9-0.1-1.7-0.4-2.4c-0.2-0.7-0.6-1.4-1-1.9c-0.4-0.5-1-0.9-1.6-1.2s-1.4-0.4-2.2-0.4h-2.5v12h2.5
		c0.8,0,1.6-0.2,2.2-0.5c0.6-0.3,1.2-0.7,1.6-1.3c0.4-0.5,0.8-1.2,1-1.9C136.7,55,136.8,54.2,136.8,53.4z"/>
	<path class="st8" d="M161.9,59.4v5.5h-16.4v-23h16.1v5.5h-9.8v3.2h8.4v5.1h-8.4v3.6H161.9z"/>
	<path class="st8" d="M171,64.9v-23h6.3v23H171z"/>
	<path class="st8" d="M187.1,53.6v11.3h-6.3v-23h4.9l9.2,11.7V41.9h6.3v23h-5L187.1,53.6z"/>
	<path class="st8" d="M204.7,64.9v-23h8.9c1.9,0,3.6,0.3,5,0.9c1.4,0.6,2.7,1.4,3.6,2.5c1,1,1.7,2.3,2.2,3.7
		c0.5,1.4,0.7,2.9,0.7,4.5c0,1.8-0.3,3.3-0.8,4.8c-0.6,1.4-1.3,2.6-2.4,3.6c-1,1-2.2,1.8-3.7,2.3c-1.4,0.6-3,0.8-4.8,0.8H204.7z
		 M218.7,53.4c0-0.9-0.1-1.7-0.4-2.4c-0.2-0.7-0.6-1.4-1-1.9c-0.4-0.5-1-0.9-1.6-1.2s-1.4-0.4-2.2-0.4H211v12h2.5
		c0.8,0,1.6-0.2,2.2-0.5c0.6-0.3,1.2-0.7,1.6-1.3c0.4-0.5,0.8-1.2,1-1.9C218.6,55,218.7,54.2,218.7,53.4z"/>
	<path class="st8" d="M227.3,64.9v-23h6.3v23H227.3z"/>
	<path class="st8" d="M235.8,53.2c0-1.4,0.3-2.8,0.8-4.2s1.3-2.6,2.3-3.7c1-1.1,2.2-2,3.7-2.6c1.4-0.7,3.1-1,5-1
		c2.2,0,4.2,0.5,5.8,1.4c1.6,0.9,2.8,2.1,3.7,3.7l-4.8,3.4c-0.2-0.6-0.5-1-0.9-1.4c-0.4-0.4-0.8-0.7-1.2-0.9
		c-0.4-0.2-0.9-0.4-1.3-0.5c-0.5-0.1-0.9-0.1-1.3-0.1c-0.9,0-1.7,0.2-2.4,0.5c-0.7,0.4-1.2,0.8-1.6,1.4c-0.4,0.6-0.7,1.2-0.9,1.9
		c-0.2,0.7-0.3,1.4-0.3,2.2c0,0.8,0.1,1.6,0.4,2.3c0.2,0.7,0.6,1.4,1,1.9s1,1,1.7,1.3s1.4,0.5,2.2,0.5c0.4,0,0.9,0,1.3-0.1
		c0.5-0.1,0.9-0.3,1.3-0.5c0.4-0.2,0.8-0.5,1.1-0.9c0.3-0.4,0.6-0.8,0.8-1.3l5.2,3.1c-0.3,0.8-0.9,1.6-1.6,2.3
		c-0.7,0.7-1.5,1.2-2.4,1.7c-0.9,0.5-1.9,0.8-2.9,1s-2,0.4-3,0.4c-1.7,0-3.3-0.3-4.7-1c-1.4-0.7-2.6-1.6-3.7-2.7
		c-1-1.1-1.8-2.4-2.4-3.8S235.8,54.7,235.8,53.2z"/>
	<path class="st8" d="M264.6,41.9h5.8l8,23h-6.4l-1.4-4.5h-6.1l-1.4,4.5h-6.5L264.6,41.9z M269.5,56.2l-2-7.1l-2.1,7.1H269.5z"/>
	<path class="st8" d="M279.7,64.9v-23h8.9c1.9,0,3.6,0.3,5,0.9c1.4,0.6,2.7,1.4,3.6,2.5c1,1,1.7,2.3,2.2,3.7
		c0.5,1.4,0.7,2.9,0.7,4.5c0,1.8-0.3,3.3-0.8,4.8c-0.6,1.4-1.3,2.6-2.4,3.6c-1,1-2.2,1.8-3.7,2.3c-1.4,0.6-3,0.8-4.8,0.8H279.7z
		 M293.7,53.4c0-0.9-0.1-1.7-0.4-2.4c-0.2-0.7-0.6-1.4-1-1.9c-0.4-0.5-1-0.9-1.6-1.2c-0.6-0.3-1.4-0.4-2.2-0.4H286v12h2.5
		c0.8,0,1.6-0.2,2.2-0.5c0.6-0.3,1.2-0.7,1.6-1.3c0.4-0.5,0.8-1.2,1-1.9C293.6,55,293.7,54.2,293.7,53.4z"/>
	<path class="st8" d="M312.7,65.1c-1.8,0-3.3-0.3-4.8-1c-1.4-0.7-2.6-1.6-3.7-2.6c-1-1.1-1.8-2.3-2.4-3.7s-0.8-2.9-0.8-4.3
		c0-1.5,0.3-3,0.9-4.4s1.4-2.6,2.5-3.7c1-1.1,2.3-1.9,3.7-2.6s3-1,4.7-1c1.8,0,3.3,0.3,4.8,1c1.4,0.7,2.7,1.6,3.7,2.7
		c1,1.1,1.8,2.4,2.4,3.8s0.8,2.8,0.8,4.3c0,1.5-0.3,3-0.9,4.4c-0.6,1.4-1.4,2.6-2.4,3.7c-1,1.1-2.3,1.9-3.7,2.6
		C316,64.8,314.4,65.1,312.7,65.1z M307.5,53.4c0,0.8,0.1,1.5,0.3,2.3c0.2,0.7,0.5,1.4,1,1.9c0.4,0.6,1,1,1.6,1.4
		c0.7,0.3,1.4,0.5,2.4,0.5c0.9,0,1.7-0.2,2.4-0.5c0.7-0.4,1.2-0.8,1.6-1.4s0.7-1.2,0.9-2c0.2-0.7,0.3-1.5,0.3-2.2
		c0-0.8-0.1-1.5-0.3-2.3c-0.2-0.7-0.5-1.4-1-1.9c-0.4-0.6-1-1-1.7-1.3c-0.7-0.3-1.4-0.5-2.3-0.5c-0.9,0-1.7,0.2-2.4,0.5
		c-0.7,0.3-1.2,0.8-1.6,1.4s-0.8,1.2-1,1.9C307.6,51.9,307.5,52.7,307.5,53.4z"/>
	<path class="st8" d="M326.6,64.9v-23h10.6c1.1,0,2.2,0.2,3.1,0.7c1,0.5,1.8,1.1,2.5,1.8c0.7,0.7,1.2,1.6,1.6,2.6
		c0.4,1,0.6,1.9,0.6,2.9c0,1.3-0.3,2.6-0.9,3.7c-0.6,1.2-1.4,2.1-2.4,2.8l4.9,8.5h-7.1l-4.1-7.1H333v7.1H326.6z M333,52.3h4
		c0.4,0,0.8-0.2,1.1-0.6c0.3-0.4,0.5-1,0.5-1.8c0-0.8-0.2-1.4-0.6-1.8c-0.4-0.4-0.8-0.6-1.2-0.6H333V52.3z"/>
	<path class="st8" d="M364.4,59.4v5.5H348v-23h16.1v5.5h-9.8v3.2h8.4v5.1h-8.4v3.6H364.4z"/>
	<path class="st8" d="M380.8,49.4c-0.6-0.4-1.3-0.7-2-1c-0.6-0.3-1.2-0.5-2-0.7c-0.7-0.2-1.4-0.3-2.1-0.3c-0.6,0-1,0.1-1.3,0.3
		c-0.3,0.2-0.5,0.5-0.5,0.9c0,0.3,0.1,0.6,0.3,0.7c0.2,0.2,0.5,0.4,0.8,0.5s0.8,0.3,1.3,0.5s1.1,0.3,1.8,0.6c1.1,0.3,2,0.7,2.9,1.1
		c0.9,0.4,1.6,0.8,2.2,1.4c0.6,0.5,1.1,1.2,1.4,1.9c0.3,0.8,0.5,1.7,0.5,2.8c0,1.4-0.3,2.5-0.8,3.5c-0.5,0.9-1.2,1.7-2,2.3
		s-1.8,1-2.8,1.2c-1,0.2-2.1,0.4-3.2,0.4c-0.8,0-1.7-0.1-2.6-0.2c-0.9-0.1-1.8-0.3-2.6-0.6c-0.9-0.2-1.7-0.5-2.5-0.8
		c-0.8-0.3-1.6-0.7-2.3-1.1L368,57c0.8,0.5,1.5,0.9,2.4,1.3c0.7,0.3,1.5,0.6,2.4,0.9c0.9,0.3,1.8,0.4,2.7,0.4c0.7,0,1.2-0.1,1.4-0.3
		c0.3-0.2,0.4-0.4,0.4-0.7c0-0.3-0.1-0.6-0.4-0.8s-0.6-0.4-1.1-0.6s-1-0.3-1.6-0.5c-0.6-0.2-1.3-0.4-2-0.6c-1-0.3-1.9-0.7-2.6-1.1
		c-0.7-0.4-1.3-0.9-1.8-1.4c-0.5-0.5-0.8-1.1-1.1-1.7s-0.3-1.4-0.3-2.2c0-1.3,0.2-2.4,0.7-3.4c0.5-1,1.1-1.8,1.9-2.4
		s1.7-1.1,2.7-1.5c1-0.3,2.1-0.5,3.3-0.5c0.8,0,1.7,0.1,2.5,0.2c0.8,0.2,1.6,0.4,2.3,0.6c0.7,0.2,1.4,0.5,2.1,0.8
		c0.6,0.3,1.2,0.6,1.8,0.8L380.8,49.4z"/>
	<path class="st8" d="M122.8,100.9v-23h8.9c1.9,0,3.6,0.3,5,0.9c1.4,0.6,2.7,1.4,3.6,2.5c1,1,1.7,2.3,2.2,3.7
		c0.5,1.4,0.7,2.9,0.7,4.5c0,1.8-0.3,3.3-0.8,4.8c-0.6,1.4-1.3,2.6-2.4,3.6c-1,1-2.2,1.8-3.7,2.3c-1.4,0.6-3,0.8-4.8,0.8H122.8z
		 M136.8,89.4c0-0.9-0.1-1.7-0.4-2.4c-0.2-0.7-0.6-1.4-1-1.9c-0.4-0.5-1-0.9-1.6-1.2c-0.6-0.3-1.4-0.4-2.2-0.4h-2.5v12h2.5
		c0.8,0,1.6-0.2,2.2-0.5c0.6-0.3,1.2-0.7,1.6-1.3c0.4-0.5,0.8-1.2,1-1.9C136.7,91,136.8,90.2,136.8,89.4z"/>
	<path class="st8" d="M161.9,95.4v5.5h-16.4v-23h16.1v5.5h-9.8v3.2h8.4v5.1h-8.4v3.6H161.9z"/>
	<path class="st8" d="M188.4,100.9V88.8l-3.9,8.5h-3.4l-3.9-8.5v12.1H171v-23h6.9l5,10.8l5-10.8h6.9v23H188.4z"/>
	<path class="st8" d="M208.5,101.1c-1.8,0-3.3-0.3-4.8-1c-1.4-0.7-2.7-1.6-3.7-2.6c-1-1.1-1.8-2.3-2.4-3.7c-0.6-1.4-0.8-2.9-0.8-4.3
		c0-1.5,0.3-3,0.9-4.4c0.6-1.4,1.4-2.6,2.5-3.7c1-1.1,2.3-1.9,3.7-2.6c1.4-0.6,3-1,4.7-1c1.8,0,3.3,0.3,4.8,1
		c1.4,0.7,2.6,1.6,3.7,2.7c1,1.1,1.8,2.4,2.4,3.8c0.6,1.4,0.8,2.8,0.8,4.3c0,1.5-0.3,3-0.9,4.4s-1.4,2.6-2.4,3.7
		c-1,1.1-2.3,1.9-3.7,2.6C211.8,100.8,210.3,101.1,208.5,101.1z M203.3,89.4c0,0.8,0.1,1.5,0.3,2.3c0.2,0.7,0.5,1.4,1,1.9
		c0.4,0.6,1,1,1.6,1.4c0.7,0.3,1.4,0.5,2.4,0.5s1.7-0.2,2.4-0.5c0.7-0.4,1.2-0.8,1.6-1.4s0.7-1.2,0.9-2c0.2-0.7,0.3-1.5,0.3-2.2
		c0-0.8-0.1-1.5-0.3-2.3c-0.2-0.7-0.5-1.4-1-1.9s-1-1-1.7-1.3c-0.7-0.3-1.4-0.5-2.3-0.5c-0.9,0-1.7,0.2-2.4,0.5
		c-0.7,0.3-1.2,0.8-1.6,1.4c-0.4,0.6-0.8,1.2-1,1.9C203.4,87.9,203.3,88.7,203.3,89.4z"/>
	<path class="st8" d="M228.8,89.6v11.3h-6.3v-23h4.9l9.2,11.7V77.9h6.3v23h-5L228.8,89.6z"/>
	<path class="st8" d="M246.3,100.9v-23h6.3v23H246.3z"/>
	<path class="st8" d="M274,83.4h-6.6v17.5h-6.3V83.4h-6.7v-5.5H274V83.4z"/>
	<path class="st8" d="M285.8,101.1c-1.8,0-3.3-0.3-4.8-1c-1.4-0.7-2.6-1.6-3.7-2.6c-1-1.1-1.8-2.3-2.4-3.7s-0.8-2.9-0.8-4.3
		c0-1.5,0.3-3,0.9-4.4s1.4-2.6,2.5-3.7c1-1.1,2.3-1.9,3.7-2.6c1.4-0.6,3-1,4.7-1c1.8,0,3.3,0.3,4.8,1c1.4,0.7,2.7,1.6,3.7,2.7
		s1.8,2.4,2.4,3.8s0.8,2.8,0.8,4.3c0,1.5-0.3,3-0.9,4.4s-1.4,2.6-2.4,3.7c-1,1.1-2.3,1.9-3.7,2.6
		C289.1,100.8,287.5,101.1,285.8,101.1z M280.6,89.4c0,0.8,0.1,1.5,0.3,2.3c0.2,0.7,0.5,1.4,1,1.9s1,1,1.6,1.4
		c0.7,0.3,1.4,0.5,2.4,0.5c0.9,0,1.7-0.2,2.4-0.5c0.7-0.4,1.2-0.8,1.6-1.4s0.7-1.2,0.9-2c0.2-0.7,0.3-1.5,0.3-2.2
		c0-0.8-0.1-1.5-0.3-2.3c-0.2-0.7-0.5-1.4-1-1.9c-0.4-0.6-1-1-1.7-1.3c-0.7-0.3-1.4-0.5-2.3-0.5c-0.9,0-1.7,0.2-2.4,0.5
		c-0.7,0.3-1.2,0.8-1.6,1.4c-0.4,0.6-0.8,1.2-1,1.9C280.7,87.9,280.6,88.7,280.6,89.4z"/>
	<path class="st8" d="M299.7,100.9v-23h10.6c1.1,0,2.2,0.2,3.1,0.7c1,0.5,1.8,1.1,2.5,1.8c0.7,0.7,1.2,1.6,1.6,2.6
		c0.4,1,0.6,1.9,0.6,2.9c0,1.3-0.3,2.6-0.9,3.7c-0.6,1.2-1.4,2.1-2.4,2.8l4.9,8.5h-7.1l-4.1-7.1H306v7.1H299.7z M306,88.3h4
		c0.4,0,0.8-0.2,1.1-0.6c0.3-0.4,0.5-1,0.5-1.8c0-0.8-0.2-1.4-0.6-1.8c-0.4-0.4-0.8-0.6-1.2-0.6H306V88.3z"/>
	<path class="st8" d="M327,77.9h5.8l8,23h-6.4l-1.4-4.5h-6.1l-1.4,4.5H319L327,77.9z M331.9,92.2l-2-7.1l-2.1,7.1H331.9z"/>
	<path class="st8" d="M359.6,100.9V88.8l-3.9,8.5h-3.4l-3.9-8.5v12.1h-6.3v-23h6.9l5,10.8l5-10.8h6.9v23H359.6z"/>
	<path class="st8" d="M385.7,95.4v5.5h-16.4v-23h16.1v5.5h-9.8v3.2h8.4v5.1h-8.4v3.6H385.7z"/>
	<path class="st8" d="M394.4,89.6v11.3h-6.3v-23h4.9l9.2,11.7V77.9h6.3v23h-5L394.4,89.6z"/>
	<path class="st8" d="M430,83.4h-6.6v17.5H417V83.4h-6.7v-5.5H430V83.4z"/>
	<path class="st8" d="M441.8,101.1c-1.8,0-3.3-0.3-4.8-1c-1.4-0.7-2.6-1.6-3.7-2.6c-1-1.1-1.8-2.3-2.4-3.7s-0.8-2.9-0.8-4.3
		c0-1.5,0.3-3,0.9-4.4s1.4-2.6,2.5-3.7c1-1.1,2.3-1.9,3.7-2.6c1.4-0.6,3-1,4.7-1c1.8,0,3.3,0.3,4.8,1c1.4,0.7,2.7,1.6,3.7,2.7
		s1.8,2.4,2.4,3.8s0.8,2.8,0.8,4.3c0,1.5-0.3,3-0.9,4.4s-1.4,2.6-2.4,3.7c-1,1.1-2.3,1.9-3.7,2.6C445,100.8,443.5,101.1,441.8,101.1
		z M436.5,89.4c0,0.8,0.1,1.5,0.3,2.3c0.2,0.7,0.5,1.4,1,1.9s1,1,1.6,1.4c0.7,0.3,1.4,0.5,2.4,0.5c0.9,0,1.7-0.2,2.4-0.5
		c0.7-0.4,1.2-0.8,1.6-1.4s0.7-1.2,0.9-2c0.2-0.7,0.3-1.5,0.3-2.2c0-0.8-0.1-1.5-0.3-2.3c-0.2-0.7-0.5-1.4-1-1.9
		c-0.4-0.6-1-1-1.7-1.3c-0.7-0.3-1.4-0.5-2.3-0.5c-0.9,0-1.7,0.2-2.4,0.5c-0.7,0.3-1.2,0.8-1.6,1.4c-0.4,0.6-0.8,1.2-1,1.9
		C436.6,87.9,436.5,88.7,436.5,89.4z"/>
</g>
</svg>
