<?xml version="1.0" encoding="utf-8"?>
<!-- Generator: Adobe Illustrator 19.2.0, SVG Export Plug-In . SVG Version: 6.00 Build 0)  -->
<svg version="1.1" id="Layer_1" xmlns="http://www.w3.org/2000/svg" xmlns:xlink="http://www.w3.org/1999/xlink" x="0px" y="0px"
	 viewBox="0 0 300 270" style="enable-background:new 0 0 300 270;" xml:space="preserve">
<style type="text/css">
	.st0{fill-rule:evenodd;clip-rule:evenodd;fill:#FFFFFF;}
	.st1{fill:#666766;}
	.st2{fill-rule:evenodd;clip-rule:evenodd;fill:#FFCC32;}
	.st3{fill-rule:evenodd;clip-rule:evenodd;fill:#008C4F;}
	.st4{fill:#A7B2BE;}
	.st5{fill:url(#XMLID_2_);}
	.st6{fill:url(#XMLID_3_);}
	.st7{fill:url(#XMLID_4_);}
	.st8{fill:url(#XMLID_5_);}
	.st9{fill:url(#XMLID_6_);}
	.st10{fill:url(#XMLID_7_);}
	.st11{fill:url(#XMLID_8_);}
	.st12{fill:url(#XMLID_9_);}
	.st13{fill:url(#XMLID_10_);}
	.st14{fill:url(#XMLID_11_);}
	.st15{fill:url(#XMLID_12_);}
	.st16{fill:url(#XMLID_13_);}
	.st17{fill:url(#XMLID_14_);}
	.st18{fill:url(#XMLID_15_);}
	.st19{fill:url(#XMLID_16_);}
	.st20{fill:url(#XMLID_17_);}
	.st21{fill:url(#XMLID_18_);}
	.st22{fill:url(#XMLID_19_);}
	.st23{fill:url(#XMLID_20_);}
	.st24{fill:url(#XMLID_21_);}
	.st25{fill:url(#XMLID_22_);}
	.st26{fill:url(#XMLID_23_);}
	.st27{fill:url(#XMLID_24_);}
	.st28{fill:url(#XMLID_25_);}
	.st29{fill:url(#XMLID_26_);}
	.st30{fill:url(#XMLID_27_);}
	.st31{fill:url(#XMLID_28_);}
	.st32{fill:url(#XMLID_29_);}
	.st33{fill:url(#XMLID_30_);}
	.st34{fill:url(#XMLID_31_);}
	.st35{fill:url(#XMLID_32_);}
	.st36{fill:url(#XMLID_33_);}
	.st37{fill:url(#XMLID_34_);}
	.st38{fill:url(#XMLID_35_);}
	.st39{fill:url(#XMLID_36_);}
	.st40{fill:url(#XMLID_37_);}
	.st41{fill:url(#XMLID_38_);}
	.st42{fill:url(#XMLID_39_);}
	.st43{fill:url(#XMLID_40_);}
	.st44{fill:url(#XMLID_41_);}
	.st45{fill:url(#XMLID_42_);}
	.st46{fill:url(#XMLID_43_);}
	.st47{fill:url(#XMLID_44_);}
	.st48{fill:url(#XMLID_45_);}
	.st49{fill:url(#XMLID_46_);}
	.st50{fill:url(#XMLID_47_);}
	.st51{fill:url(#XMLID_48_);}
	.st52{fill:url(#XMLID_49_);}
	.st53{fill:url(#XMLID_50_);}
	.st54{fill:url(#XMLID_51_);}
	.st55{fill:url(#XMLID_52_);}
	.st56{fill:url(#XMLID_53_);}
	.st57{fill:url(#XMLID_54_);}
	.st58{fill:url(#XMLID_55_);}
	.st59{fill:url(#XMLID_56_);}
	.st60{fill:url(#XMLID_57_);}
	.st61{fill:url(#XMLID_58_);}
	.st62{fill:url(#XMLID_59_);}
	.st63{fill:url(#XMLID_60_);}
	.st64{fill:url(#XMLID_61_);}
	.st65{fill:url(#XMLID_62_);}
	.st66{fill:url(#XMLID_63_);}
	.st67{fill:url(#XMLID_64_);}
	.st68{fill:url(#XMLID_65_);}
	.st69{fill:url(#XMLID_66_);}
	.st70{fill:url(#XMLID_67_);}
	.st71{fill:url(#XMLID_68_);}
	.st72{fill:url(#XMLID_69_);}
	.st73{fill:#000018;}
	.st74{fill:url(#XMLID_70_);}
	.st75{fill:url(#XMLID_71_);}
	.st76{fill:url(#XMLID_72_);}
	.st77{fill:url(#XMLID_73_);}
	.st78{fill:url(#XMLID_74_);}
	.st79{fill:url(#XMLID_75_);}
	.st80{fill:url(#XMLID_76_);}
	.st81{fill:url(#XMLID_77_);}
	.st82{fill:url(#XMLID_78_);}
	.st83{fill:url(#XMLID_79_);}
	.st84{fill:url(#XMLID_80_);}
	.st85{fill:url(#XMLID_81_);}
	.st86{fill:url(#XMLID_82_);}
	.st87{fill:url(#XMLID_83_);}
	.st88{fill:url(#XMLID_84_);}
	.st89{fill:url(#XMLID_85_);}
	.st90{fill:url(#XMLID_86_);}
	.st91{fill:url(#XMLID_87_);}
	.st92{fill:url(#XMLID_88_);}
	.st93{fill:url(#XMLID_89_);}
	.st94{fill:url(#XMLID_90_);}
	.st95{fill:url(#XMLID_91_);}
	.st96{fill:url(#XMLID_92_);}
	.st97{fill:url(#XMLID_93_);}
	.st98{fill:url(#XMLID_94_);}
	.st99{fill:url(#XMLID_95_);}
	.st100{fill:url(#XMLID_96_);}
</style>
<path class="st0" d="M287,269.1H14.7c-6.6,0-12-5.4-12-12V14.3c0-6.6,5.4-12,12-12H287c6.6,0,12,5.4,12,12v242.7
	C299,263.7,293.6,269.1,287,269.1z"/>
<g>
	<path class="st1" d="M126.8,35.4v-7.1h3c0.3,0,0.6,0.1,0.8,0.2c0.3,0.1,0.5,0.3,0.7,0.5c0.2,0.2,0.3,0.4,0.4,0.7s0.2,0.5,0.2,0.8
		c0,0.3,0,0.5-0.1,0.7c-0.1,0.2-0.2,0.5-0.3,0.6c-0.1,0.2-0.3,0.4-0.5,0.5s-0.4,0.2-0.6,0.3l1.7,2.7h-0.8l-1.7-2.6h-2.1v2.6H126.8z
		 M127.5,32.1h2.3c0.2,0,0.4,0,0.6-0.1s0.3-0.2,0.4-0.4s0.2-0.3,0.3-0.5c0.1-0.2,0.1-0.4,0.1-0.6c0-0.2,0-0.4-0.1-0.6
		c-0.1-0.2-0.2-0.4-0.3-0.5s-0.3-0.3-0.5-0.3c-0.2-0.1-0.4-0.1-0.6-0.1h-2.3V32.1z"/>
	<path class="st1" d="M135.3,35.5c-0.4,0-0.7-0.1-1-0.2c-0.3-0.1-0.6-0.3-0.8-0.6s-0.4-0.5-0.5-0.9c-0.1-0.3-0.2-0.7-0.2-1
		c0-0.4,0.1-0.7,0.2-1s0.3-0.6,0.5-0.8s0.5-0.4,0.8-0.6c0.3-0.1,0.7-0.2,1-0.2c0.4,0,0.7,0.1,1,0.2s0.6,0.3,0.8,0.6
		c0.2,0.2,0.4,0.5,0.5,0.8c0.1,0.3,0.2,0.7,0.2,1c0,0.1,0,0.1,0,0.2c0,0.1,0,0.1,0,0.1h-4.5c0,0.3,0.1,0.5,0.2,0.8s0.3,0.4,0.4,0.6
		c0.2,0.2,0.4,0.3,0.6,0.4c0.2,0.1,0.5,0.1,0.7,0.1c0.2,0,0.3,0,0.5-0.1c0.2,0,0.3-0.1,0.5-0.2c0.1-0.1,0.3-0.2,0.4-0.3
		c0.1-0.1,0.2-0.2,0.3-0.4l0.6,0.2c-0.1,0.2-0.2,0.4-0.3,0.5c-0.1,0.2-0.3,0.3-0.5,0.4c-0.2,0.1-0.4,0.2-0.6,0.3
		C135.8,35.4,135.5,35.5,135.3,35.5z M137.2,32.5c0-0.3-0.1-0.5-0.2-0.8c-0.1-0.2-0.2-0.4-0.4-0.6c-0.2-0.2-0.4-0.3-0.6-0.4
		s-0.5-0.1-0.7-0.1c-0.3,0-0.5,0-0.7,0.1s-0.4,0.2-0.6,0.4c-0.2,0.2-0.3,0.4-0.4,0.6c-0.1,0.2-0.2,0.5-0.2,0.8H137.2z"/>
	<path class="st1" d="M140.2,35.5c-0.2,0-0.5,0-0.7-0.1c-0.2-0.1-0.4-0.2-0.5-0.3c-0.2-0.1-0.3-0.3-0.4-0.5
		c-0.1-0.2-0.1-0.4-0.1-0.6s0.1-0.4,0.2-0.6c0.1-0.2,0.3-0.4,0.5-0.5c0.2-0.1,0.4-0.2,0.7-0.3c0.3-0.1,0.6-0.1,0.9-0.1
		c0.3,0,0.5,0,0.8,0.1c0.3,0,0.5,0.1,0.7,0.2v-0.5c0-0.5-0.1-0.8-0.4-1.1c-0.3-0.3-0.6-0.4-1.1-0.4c-0.3,0-0.5,0.1-0.8,0.2
		c-0.3,0.1-0.6,0.3-0.8,0.5l-0.2-0.5c0.7-0.5,1.3-0.7,2-0.7c0.7,0,1.2,0.2,1.5,0.5c0.4,0.4,0.6,0.9,0.6,1.5v2.4
		c0,0.2,0.1,0.3,0.2,0.3v0.6c-0.1,0-0.2,0-0.3,0c-0.2,0-0.3,0-0.4-0.1c-0.1-0.1-0.1-0.2-0.2-0.4l0-0.4c-0.2,0.3-0.5,0.6-0.9,0.7
		C141,35.4,140.6,35.5,140.2,35.5z M140.4,34.9c0.4,0,0.7-0.1,1-0.2c0.3-0.1,0.5-0.3,0.7-0.5c0.1-0.1,0.1-0.1,0.1-0.2
		c0-0.1,0-0.1,0-0.2V33c-0.2-0.1-0.5-0.2-0.7-0.2s-0.5-0.1-0.7-0.1c-0.5,0-0.9,0.1-1.2,0.3c-0.3,0.2-0.4,0.5-0.4,0.8
		c0,0.2,0,0.3,0.1,0.5s0.1,0.3,0.3,0.4s0.2,0.2,0.4,0.2C140,34.9,140.2,34.9,140.4,34.9z"/>
	<path class="st1" d="M144.4,28.1h0.7v6.1c0,0.2,0.1,0.3,0.2,0.5c0.1,0.1,0.3,0.2,0.5,0.2c0.1,0,0.2,0,0.3,0c0.1,0,0.2,0,0.3-0.1
		l0.1,0.5c-0.1,0.1-0.3,0.1-0.5,0.1c-0.2,0-0.3,0-0.5,0c-0.3,0-0.6-0.1-0.7-0.3c-0.2-0.2-0.3-0.4-0.3-0.7V28.1z"/>
	<path class="st1" d="M147.1,29.1v-1h0.7v1H147.1z M147.1,35.4v-5.2h0.7v5.2H147.1z"/>
	<path class="st1" d="M148.8,34.9l3.5-4.2h-3.4v-0.5h4.2v0.5l-3.5,4.2h3.5v0.5h-4.2V34.9z"/>
	<path class="st1" d="M155.5,35.5c-0.2,0-0.5,0-0.7-0.1c-0.2-0.1-0.4-0.2-0.5-0.3c-0.2-0.1-0.3-0.3-0.4-0.5
		c-0.1-0.2-0.1-0.4-0.1-0.6s0.1-0.4,0.2-0.6c0.1-0.2,0.3-0.4,0.5-0.5c0.2-0.1,0.4-0.2,0.7-0.3c0.3-0.1,0.6-0.1,0.9-0.1
		c0.3,0,0.5,0,0.8,0.1c0.3,0,0.5,0.1,0.7,0.2v-0.5c0-0.5-0.1-0.8-0.4-1.1c-0.3-0.3-0.6-0.4-1.1-0.4c-0.3,0-0.5,0.1-0.8,0.2
		c-0.3,0.1-0.6,0.3-0.8,0.5l-0.2-0.5c0.7-0.5,1.3-0.7,2-0.7c0.7,0,1.2,0.2,1.5,0.5c0.4,0.4,0.6,0.9,0.6,1.5v2.4
		c0,0.2,0.1,0.3,0.2,0.3v0.6c-0.1,0-0.2,0-0.3,0c-0.2,0-0.3,0-0.4-0.1c-0.1-0.1-0.1-0.2-0.2-0.4l0-0.4c-0.2,0.3-0.5,0.6-0.9,0.7
		C156.3,35.4,155.9,35.5,155.5,35.5z M155.6,34.9c0.4,0,0.7-0.1,1-0.2c0.3-0.1,0.5-0.3,0.7-0.5c0.1-0.1,0.1-0.1,0.1-0.2
		c0-0.1,0-0.1,0-0.2V33c-0.2-0.1-0.5-0.2-0.7-0.2s-0.5-0.1-0.7-0.1c-0.5,0-0.9,0.1-1.2,0.3c-0.3,0.2-0.4,0.5-0.4,0.8
		c0,0.2,0,0.3,0.1,0.5s0.1,0.3,0.3,0.4s0.2,0.2,0.4,0.2C155.3,34.9,155.5,34.9,155.6,34.9z"/>
	<path class="st1" d="M161.1,36.6c0.1,0,0.2,0.1,0.4,0.1c0.2,0,0.3,0.1,0.5,0.1c0.4,0,0.6-0.1,0.6-0.4c0-0.1,0-0.2-0.1-0.3
		c-0.1-0.1-0.2-0.1-0.4-0.1c-0.1,0-0.3,0-0.4,0c-0.2,0-0.3,0.1-0.4,0.1l0.4-0.8c-0.4,0-0.7-0.1-1-0.3c-0.3-0.2-0.5-0.3-0.8-0.6
		c-0.2-0.2-0.4-0.5-0.5-0.8c-0.1-0.3-0.2-0.7-0.2-1c0-0.4,0.1-0.7,0.2-1c0.1-0.3,0.3-0.6,0.5-0.9c0.2-0.2,0.5-0.4,0.8-0.6
		c0.3-0.1,0.7-0.2,1.1-0.2c0.5,0,0.9,0.1,1.3,0.3c0.4,0.2,0.6,0.5,0.8,0.9l-0.7,0.2c-0.1-0.3-0.4-0.5-0.6-0.6
		c-0.3-0.2-0.6-0.2-0.9-0.2c-0.3,0-0.5,0.1-0.7,0.2c-0.2,0.1-0.4,0.3-0.6,0.4c-0.2,0.2-0.3,0.4-0.4,0.7c-0.1,0.3-0.1,0.5-0.1,0.8
		c0,0.3,0,0.6,0.2,0.8c0.1,0.3,0.2,0.5,0.4,0.7c0.2,0.2,0.4,0.3,0.6,0.5c0.2,0.1,0.5,0.2,0.7,0.2c0.2,0,0.3,0,0.5-0.1
		c0.2,0,0.3-0.1,0.5-0.2c0.1-0.1,0.3-0.2,0.4-0.3s0.2-0.2,0.2-0.3l0.7,0.2c-0.1,0.4-0.4,0.7-0.8,0.9c-0.4,0.2-0.8,0.4-1.2,0.4
		l-0.3,0.4c0.1,0,0.1,0,0.2,0s0.1,0,0.2,0c0.2,0,0.4,0.1,0.6,0.2c0.1,0.1,0.2,0.3,0.2,0.5c0,0.2-0.1,0.4-0.3,0.5
		c-0.2,0.1-0.4,0.2-0.8,0.2c-0.2,0-0.4,0-0.5-0.1c-0.2,0-0.3-0.1-0.5-0.1L161.1,36.6z"/>
	<path class="st1" d="M166.4,35.5c-0.2,0-0.5,0-0.7-0.1c-0.2-0.1-0.4-0.2-0.5-0.3c-0.2-0.1-0.3-0.3-0.4-0.5
		c-0.1-0.2-0.1-0.4-0.1-0.6s0.1-0.4,0.2-0.6c0.1-0.2,0.3-0.4,0.5-0.5c0.2-0.1,0.4-0.2,0.7-0.3c0.3-0.1,0.6-0.1,0.9-0.1
		c0.3,0,0.5,0,0.8,0.1c0.3,0,0.5,0.1,0.7,0.2v-0.5c0-0.5-0.1-0.8-0.4-1.1c-0.3-0.3-0.6-0.4-1.1-0.4c-0.3,0-0.5,0.1-0.8,0.2
		c-0.3,0.1-0.6,0.3-0.8,0.5l-0.2-0.5c0.7-0.5,1.3-0.7,2-0.7c0.7,0,1.2,0.2,1.5,0.5c0.4,0.4,0.6,0.9,0.6,1.5v2.4
		c0,0.2,0.1,0.3,0.2,0.3v0.6c-0.1,0-0.2,0-0.3,0c-0.2,0-0.3,0-0.4-0.1c-0.1-0.1-0.1-0.2-0.2-0.4l0-0.4c-0.2,0.3-0.5,0.6-0.9,0.7
		C167.2,35.4,166.8,35.5,166.4,35.5z M166.6,34.9c0.4,0,0.7-0.1,1-0.2c0.3-0.1,0.5-0.3,0.7-0.5c0.1-0.1,0.1-0.1,0.1-0.2
		c0-0.1,0-0.1,0-0.2V33c-0.2-0.1-0.5-0.2-0.7-0.2s-0.5-0.1-0.7-0.1c-0.5,0-0.9,0.1-1.2,0.3c-0.3,0.2-0.4,0.5-0.4,0.8
		c0,0.2,0,0.3,0.1,0.5s0.1,0.3,0.3,0.4s0.2,0.2,0.4,0.2C166.3,34.9,166.4,34.9,166.6,34.9z M167.6,29c-0.2,0-0.3,0-0.4-0.1
		c-0.1,0-0.2-0.1-0.3-0.1s-0.2-0.1-0.3-0.1c-0.1,0-0.2-0.1-0.3-0.1c-0.1,0-0.2,0-0.3,0.1s-0.1,0.1-0.2,0.2c0,0.1-0.1,0.1-0.1,0.2
		c0,0,0,0.1,0,0.1h-0.4c0,0,0-0.1,0-0.2s0.1-0.2,0.1-0.3c0.1-0.1,0.2-0.2,0.3-0.3c0.1-0.1,0.3-0.1,0.5-0.1c0.1,0,0.3,0,0.4,0.1
		c0.1,0,0.2,0.1,0.3,0.1c0.1,0.1,0.2,0.1,0.3,0.1s0.2,0.1,0.3,0.1c0.1,0,0.2,0,0.3-0.1s0.1-0.1,0.2-0.2s0.1-0.1,0.1-0.2s0-0.1,0-0.1
		h0.4c0,0,0,0.1,0,0.2c0,0.1-0.1,0.2-0.1,0.3s-0.2,0.2-0.3,0.3S167.8,29,167.6,29z"/>
	<path class="st1" d="M172.8,35.5c-0.4,0-0.7-0.1-1-0.2c-0.3-0.1-0.6-0.3-0.8-0.6c-0.2-0.2-0.4-0.5-0.5-0.9c-0.1-0.3-0.2-0.7-0.2-1
		c0-0.4,0.1-0.7,0.2-1c0.1-0.3,0.3-0.6,0.5-0.9c0.2-0.2,0.5-0.4,0.8-0.6c0.3-0.1,0.7-0.2,1-0.2c0.4,0,0.7,0.1,1,0.2s0.6,0.3,0.8,0.6
		c0.2,0.2,0.4,0.5,0.5,0.9c0.1,0.3,0.2,0.7,0.2,1c0,0.4-0.1,0.7-0.2,1c-0.1,0.3-0.3,0.6-0.5,0.9c-0.2,0.2-0.5,0.4-0.8,0.6
		C173.5,35.4,173.2,35.5,172.8,35.5z M170.9,32.8c0,0.3,0,0.6,0.2,0.8c0.1,0.2,0.2,0.5,0.4,0.7c0.2,0.2,0.4,0.3,0.6,0.4
		c0.2,0.1,0.5,0.2,0.7,0.2c0.3,0,0.5-0.1,0.7-0.2c0.2-0.1,0.4-0.3,0.6-0.5c0.2-0.2,0.3-0.4,0.4-0.7c0.1-0.3,0.2-0.5,0.2-0.8
		c0-0.3,0-0.6-0.2-0.8c-0.1-0.3-0.2-0.5-0.4-0.7c-0.2-0.2-0.4-0.3-0.6-0.5c-0.2-0.1-0.5-0.2-0.7-0.2c-0.3,0-0.5,0.1-0.7,0.2
		c-0.2,0.1-0.4,0.3-0.6,0.5c-0.2,0.2-0.3,0.4-0.4,0.7C170.9,32.2,170.9,32.5,170.9,32.8z"/>
</g>
<g>
	<path class="st1" d="M129.5,117.8c0-0.4,0.1-0.9,0.2-1.3c0.2-0.4,0.4-0.8,0.7-1.1c0.3-0.3,0.6-0.6,1.1-0.8s0.9-0.3,1.4-0.3
		c0.6,0,1.2,0.1,1.6,0.4c0.5,0.3,0.8,0.7,1,1.1l-0.5,0.3c-0.1-0.2-0.3-0.4-0.4-0.6c-0.2-0.2-0.3-0.3-0.5-0.4
		c-0.2-0.1-0.4-0.2-0.6-0.2c-0.2,0-0.4-0.1-0.6-0.1c-0.4,0-0.8,0.1-1.1,0.3c-0.3,0.2-0.6,0.4-0.8,0.7c-0.2,0.3-0.4,0.6-0.5,0.9
		s-0.2,0.7-0.2,1.1c0,0.4,0.1,0.8,0.2,1.1c0.1,0.4,0.3,0.7,0.6,1c0.2,0.3,0.5,0.5,0.8,0.7c0.3,0.2,0.7,0.2,1.1,0.2
		c0.2,0,0.4,0,0.6-0.1c0.2-0.1,0.4-0.1,0.6-0.2c0.2-0.1,0.4-0.2,0.5-0.4s0.3-0.4,0.4-0.6l0.6,0.3c-0.1,0.3-0.3,0.5-0.5,0.7
		c-0.2,0.2-0.4,0.4-0.7,0.5s-0.5,0.2-0.8,0.3s-0.6,0.1-0.8,0.1c-0.5,0-0.9-0.1-1.3-0.3c-0.4-0.2-0.8-0.5-1.1-0.8
		c-0.3-0.3-0.5-0.7-0.7-1.2S129.5,118.2,129.5,117.8z"/>
	<path class="st1" d="M138.9,121.5c-0.4,0-0.7-0.1-1-0.2c-0.3-0.1-0.6-0.3-0.8-0.6c-0.2-0.2-0.4-0.5-0.5-0.9c-0.1-0.3-0.2-0.7-0.2-1
		c0-0.4,0.1-0.7,0.2-1c0.1-0.3,0.3-0.6,0.5-0.9c0.2-0.2,0.5-0.4,0.8-0.6c0.3-0.1,0.7-0.2,1-0.2c0.4,0,0.7,0.1,1,0.2s0.6,0.3,0.8,0.6
		c0.2,0.2,0.4,0.5,0.5,0.9c0.1,0.3,0.2,0.7,0.2,1c0,0.4-0.1,0.7-0.2,1c-0.1,0.3-0.3,0.6-0.5,0.9c-0.2,0.2-0.5,0.4-0.8,0.6
		C139.6,121.4,139.3,121.5,138.9,121.5z M137,118.8c0,0.3,0,0.6,0.2,0.8c0.1,0.2,0.2,0.5,0.4,0.7c0.2,0.2,0.4,0.3,0.6,0.4
		c0.2,0.1,0.5,0.2,0.7,0.2c0.3,0,0.5-0.1,0.7-0.2c0.2-0.1,0.4-0.3,0.6-0.5c0.2-0.2,0.3-0.4,0.4-0.7c0.1-0.3,0.2-0.5,0.2-0.8
		c0-0.3,0-0.6-0.2-0.8c-0.1-0.3-0.2-0.5-0.4-0.7c-0.2-0.2-0.4-0.3-0.6-0.5c-0.2-0.1-0.5-0.2-0.7-0.2c-0.3,0-0.5,0.1-0.7,0.2
		c-0.2,0.1-0.4,0.3-0.6,0.5c-0.2,0.2-0.3,0.4-0.4,0.7C137.1,118.2,137,118.5,137,118.8z"/>
	<path class="st1" d="M147,121.4h-0.7v-2.9c0-0.6-0.1-1.1-0.3-1.3c-0.2-0.3-0.5-0.4-0.8-0.4c-0.2,0-0.4,0-0.6,0.1
		c-0.2,0.1-0.4,0.2-0.6,0.3c-0.2,0.1-0.3,0.3-0.5,0.5c-0.1,0.2-0.2,0.4-0.3,0.6v3.2h-0.7v-5.2h0.6v1.2c0.2-0.4,0.5-0.7,0.9-0.9
		s0.8-0.3,1.3-0.3c0.3,0,0.5,0.1,0.7,0.2c0.2,0.1,0.4,0.3,0.5,0.4c0.1,0.2,0.2,0.4,0.3,0.7c0.1,0.3,0.1,0.6,0.1,0.9V121.4z"/>
	<path class="st1" d="M149.9,121.4l-2.1-5.2h0.7l1.8,4.6l1.8-4.6h0.7l-2.1,5.2H149.9z"/>
	<path class="st1" d="M155.8,121.5c-0.4,0-0.7-0.1-1-0.2c-0.3-0.1-0.6-0.3-0.8-0.6s-0.4-0.5-0.5-0.9c-0.1-0.3-0.2-0.7-0.2-1
		c0-0.4,0.1-0.7,0.2-1s0.3-0.6,0.5-0.8s0.5-0.4,0.8-0.6c0.3-0.1,0.7-0.2,1-0.2c0.4,0,0.7,0.1,1,0.2s0.6,0.3,0.8,0.6
		c0.2,0.2,0.4,0.5,0.5,0.8c0.1,0.3,0.2,0.7,0.2,1c0,0.1,0,0.1,0,0.2c0,0.1,0,0.1,0,0.1h-4.5c0,0.3,0.1,0.5,0.2,0.8s0.3,0.4,0.4,0.6
		c0.2,0.2,0.4,0.3,0.6,0.4c0.2,0.1,0.5,0.1,0.7,0.1c0.2,0,0.3,0,0.5-0.1c0.2,0,0.3-0.1,0.5-0.2c0.1-0.1,0.3-0.2,0.4-0.3
		c0.1-0.1,0.2-0.2,0.3-0.4l0.6,0.2c-0.1,0.2-0.2,0.4-0.3,0.5c-0.1,0.2-0.3,0.3-0.5,0.4c-0.2,0.1-0.4,0.2-0.6,0.3
		C156.3,121.4,156,121.5,155.8,121.5z M157.7,118.5c0-0.3-0.1-0.5-0.2-0.8c-0.1-0.2-0.2-0.4-0.4-0.6c-0.2-0.2-0.4-0.3-0.6-0.4
		s-0.5-0.1-0.7-0.1c-0.3,0-0.5,0-0.7,0.1s-0.4,0.2-0.6,0.4c-0.2,0.2-0.3,0.4-0.4,0.6c-0.1,0.2-0.2,0.5-0.2,0.8H157.7z M154.5,114.9
		l1-0.8h0.5l1,0.8l-0.4,0.2l-0.9-0.6l-0.8,0.6L154.5,114.9z"/>
	<path class="st1" d="M163.8,121.4h-0.7v-2.9c0-0.6-0.1-1.1-0.3-1.3c-0.2-0.3-0.5-0.4-0.8-0.4c-0.2,0-0.4,0-0.6,0.1
		c-0.2,0.1-0.4,0.2-0.6,0.3c-0.2,0.1-0.3,0.3-0.5,0.5c-0.1,0.2-0.2,0.4-0.3,0.6v3.2h-0.7v-5.2h0.6v1.2c0.2-0.4,0.5-0.7,0.9-0.9
		s0.8-0.3,1.3-0.3c0.3,0,0.5,0.1,0.7,0.2c0.2,0.1,0.4,0.3,0.5,0.4c0.1,0.2,0.2,0.4,0.3,0.7c0.1,0.3,0.1,0.6,0.1,0.9V121.4z"/>
	<path class="st1" d="M165.2,115.1v-1h0.7v1H165.2z M165.2,121.4v-5.2h0.7v5.2H165.2z"/>
	<path class="st1" d="M169.6,121.5c-0.4,0-0.7-0.1-1-0.2c-0.3-0.1-0.6-0.3-0.8-0.6c-0.2-0.2-0.4-0.5-0.5-0.9c-0.1-0.3-0.2-0.7-0.2-1
		c0-0.4,0.1-0.7,0.2-1c0.1-0.3,0.3-0.6,0.5-0.9c0.2-0.2,0.5-0.4,0.8-0.6c0.3-0.1,0.7-0.2,1-0.2c0.4,0,0.7,0.1,1,0.2s0.6,0.3,0.8,0.6
		c0.2,0.2,0.4,0.5,0.5,0.9c0.1,0.3,0.2,0.7,0.2,1c0,0.4-0.1,0.7-0.2,1c-0.1,0.3-0.3,0.6-0.5,0.9c-0.2,0.2-0.5,0.4-0.8,0.6
		C170.3,121.4,170,121.5,169.6,121.5z M167.7,118.8c0,0.3,0,0.6,0.2,0.8c0.1,0.2,0.2,0.5,0.4,0.7c0.2,0.2,0.4,0.3,0.6,0.4
		c0.2,0.1,0.5,0.2,0.7,0.2c0.3,0,0.5-0.1,0.7-0.2c0.2-0.1,0.4-0.3,0.6-0.5c0.2-0.2,0.3-0.4,0.4-0.7c0.1-0.3,0.2-0.5,0.2-0.8
		c0-0.3,0-0.6-0.2-0.8c-0.1-0.3-0.2-0.5-0.4-0.7c-0.2-0.2-0.4-0.3-0.6-0.5c-0.2-0.1-0.5-0.2-0.7-0.2c-0.3,0-0.5,0.1-0.7,0.2
		c-0.2,0.1-0.4,0.3-0.6,0.5c-0.2,0.2-0.3,0.4-0.4,0.7C167.8,118.2,167.7,118.5,167.7,118.8z"/>
</g>
<g>
	<rect x="67.5" y="129.9" class="st2" width="32.6" height="7.9"/>
	<path class="st3" d="M151.2,143.4l0.5-1.6h-0.5h-10.6l-0.9,3.2h3.5l-2.5,8.9h3.9l2.5-8.9h3.5L151.2,143.4z M158.5,147
		c1-0.1,1.6-0.4,1.9-1.1c0.2-0.8-0.3-1.3-1.2-1.3h-0.6h-1.2l-0.7,2.4h1.6C158.3,147,158.4,147,158.5,147z M158.5,152
		c0-0.1,0-0.1,0.1-0.2c0.3-1,0.3-1.5-0.1-1.8c-0.3-0.2-0.7-0.3-1.4-0.3h-1.2l-1.2,4.2h-3.5h-0.5l0.5-1.6l3-10.4h4.3h1.3
		c4,0,5,1.1,4.4,3.4c-0.4,1.4-1.3,2.5-2.9,2.9c1.1,0.5,1.8,0.8,1.1,3.2c-0.5,1.6-0.6,2.1-0.2,2.1l-0.1,0.4h-3.7h-0.3
		C158.2,153.6,158.3,152.9,158.5,152z M172.4,141.7c0.6-0.1,1.2-0.2,1.8-0.2c4.3,0,5.4,3.1,4.5,6.3c-1,3.4-3.5,5.6-6.3,6.2
		c-0.6,0.1-1.2,0.2-1.8,0.2c-3.8,0-5.6-2.3-4.5-6.4C167,144.6,169.4,142.3,172.4,141.7z M172.4,151.1c1.2-0.5,1.9-1.7,2.4-3.3
		c0.5-1.6,0.3-3.4-1.4-3.3c-0.3,0-0.6,0.1-0.9,0.2c-1.2,0.5-2,1.9-2.3,3.2c-0.5,1.5-0.5,3.5,1.4,3.5
		C171.7,151.2,172.1,151.2,172.4,151.1z M186.4,148.8c1.2,0,2.1,0.1,1.8,1.1c-0.2,0.9-1,1.1-1.8,1.1c-0.1,0-0.1,0-0.2,0h-1.7
		l0.6-2.2H186.4C186.4,148.8,186.4,148.8,186.4,148.8z M186.4,144.6h1.3c0.8,0,1.6,0,1.3,1c-0.2,0.7-0.9,1-1.7,1h-1h-0.6
		L186.4,144.6L186.4,144.6z M186.4,153.8c2.7-0.2,4.7-1.1,5.4-3.6c0.4-1.3,0-2.4-1.2-2.8c0.9-0.5,2-1.4,2.3-2.6c0.7-2.4-1.3-3-4-3
		h-2.5h-3.2l-3.4,12h5.9C185.9,153.8,186.2,153.8,186.4,153.8z M201.4,147c1-0.1,1.6-0.4,1.9-1.1c0.2-0.8-0.3-1.3-1.2-1.3h-0.6h-1.2
		l-0.7,2.4h1.6C201.2,147,201.3,147,201.4,147z M207,145.5c0-0.1,0.1-0.2,0.1-0.2c0.3-0.9,0.3-1.6-0.1-2.2c-0.5-0.8-1.8-1.2-4.3-1.2
		h-1.3H197l-3.4,12h3.9l1.2-4.2h1.2c0.7,0,1.2,0.1,1.4,0.3c0.4,0.3,0.3,0.9,0.1,1.8c0,0.1,0,0.2-0.1,0.2c-0.3,1-0.3,1.6-0.3,1.9h0.3
		h3.7l0.1-0.4c-0.5,0-0.3-0.5,0.2-2.1c0.7-2.4,0-2.7-1.1-3.2C205.6,147.8,206.6,146.8,207,145.5z M234.2,145.3
		c0.3-2.1-0.7-3.8-4.1-3.8c-3,0-5.6,1.3-6.3,3.8c-1.3,4.6,6,3.3,5.4,5.2c-0.2,0.6-0.9,0.9-1.9,0.9c-0.4,0-0.8-0.1-1-0.3
		c-0.3-0.2-0.4-0.5-0.4-1h-3.8c-0.5,2.2,1,4,4.2,4c3.3,0,6-1.4,6.8-4.1c1.3-4.4-6-3.3-5.5-5.1c0.1-0.4,0.6-0.7,1.4-0.7
		c0.4,0,0.7,0.1,1,0.2c0.2,0.2,0.4,0.4,0.3,0.8H234.2z M214.2,142.2l0.3-0.4h4l0.9,12h-3.9v-1.6h-1.2h-2.7l-0.9,1.6H207h-0.2
		l0.2-0.4L214.2,142.2z M214.2,149.8h1.3l0-4.3l-1.2,2.1l-1.2,2.2H214.2z M119.2,144.6L119.2,144.6l-1.1,0l-0.7,2.7l1.8,0v0
		c0.8,0,1.5-0.4,1.8-1.4C121.3,144.8,120.1,144.6,119.2,144.6L119.2,144.6z M119.2,150.1L119.2,150.1c-0.2,0-0.4,0-0.6,0h-2
		l-1.1,3.7h-4l3.4-12h4.2v0h1.6c3.5,0,4.7,1.6,4,4C124.1,148.3,122.3,149.9,119.2,150.1z M67.5,162.4H100v-20.6H67.5V162.4z
		 M135,153.8h-10l3.4-12h9.8l-0.8,2.8h-5.9l-0.5,1.7h5l-0.8,2.8h-5l-0.5,1.9h6.1L135,153.8z"/>
	<path class="st0" d="M76.5,144.2h2.7c0.5,0,1,0.3,1,0.9c0,0.8-0.6,1.3-1.5,1.3h-2.9L76.5,144.2z M75.2,148.7h2.3
		c1.1,0,1.2,0.3,1.4,0.6c0.2,0.3,0.1,0.8,0,1c-0.1,0.2-0.4,1-1.8,1h-2.6C74.5,151.3,75.2,148.7,75.2,148.7z M89.9,144.2h2.6
		c1.2,0,1.3,0.8,1.3,1.1c0,0.5-0.5,1.6-2,1.6h-2.6C89.1,146.9,89.9,144.2,89.9,144.2z M100,141.7v-3.9H67.5v3.9h6.3l-3.5,12h7.1
		c3.1,0,3.6-0.7,4.2-1.2c0.8-0.7,1.3-2.4,0.9-3.5c-0.3-0.8-1-1.3-1.1-1.3c1-0.4,1.5-1.4,1.6-1.6c0.4-0.7,0.6-2.1-0.3-3.2
		c-0.7-0.9-2.2-1.1-3.2-1.2h7.6l-3.5,12h3.5l1.3-4.6h2c1.5,0,1.3,0.9,1.4,1.3l0.1,3.4l3.3,0c0,0-0.1-3.8-0.2-4c0-1-0.7-1.4-1.2-1.4
		c1-0.3,2-1.2,2.3-1.8c0.4-0.7,0.7-1.8,0.3-2.9c-0.6-1.6-2.2-1.9-3.2-1.9H100z"/>
</g>
<g id="XMLID_1611_">
	<g id="XMLID_3982_">
		<g id="XMLID_3983_">
			<path id="XMLID_4016_" class="st4" d="M70.6,240.2c-1.5,0-1.7-1-0.7-2.3c0.9-1.2,2.7-2.3,4-2.3c0.8,0,1.1,0.2,1.3,0.6
				c-0.4,0.2-0.6,0.4-0.9,0.6c-0.1-0.3-0.4-0.5-0.9-0.5c-0.8,0-2,0.7-2.6,1.6c-0.7,0.9-0.5,1.6,0.4,1.6c0.4,0,0.9-0.1,1.4-0.3
				c0.2-0.3,0.4-0.5,0.6-0.8c-0.5,0-0.7,0-1.2,0c0.2-0.3,0.3-0.4,0.5-0.7c0.8,0,1.2,0,2,0c-0.5,0.7-0.8,1.1-1.3,1.9
				C72.4,239.8,71.5,240.2,70.6,240.2z"/>
			<path id="XMLID_4013_" class="st4" d="M82.6,240.2c-1.4,0-1.8-1-1-2.3c0.8-1.3,2.4-2.3,3.8-2.3c1.4,0,1.7,1,1,2.3
				C85.7,239.1,84.1,240.2,82.6,240.2z M85,236.3c-0.9,0-2,0.7-2.5,1.6c-0.5,0.9-0.3,1.6,0.6,1.6c0.9,0,2-0.7,2.5-1.6
				C86.1,237,85.9,236.3,85,236.3z"/>
			<path id="XMLID_4011_" class="st4" d="M98,235.6c0.3,0,0.5,0,0.9,0c-1.4,1.5-2.7,3-4.1,4.5c-0.3,0-0.4,0-0.7,0
				c0.1-1.8,0.2-2.7,0.4-4.5c0.4,0,0.5,0,0.9,0c-0.2,1.4-0.2,2-0.4,3.4C96.2,237.7,96.8,237,98,235.6z"/>
			<path id="XMLID_4009_" class="st4" d="M109.2,236.3c-1,0-1.5,0-2.6,0c-0.2,0.5-0.3,0.7-0.5,1.2c0.9,0,1.4,0,2.3,0
				c-0.1,0.3-0.2,0.4-0.3,0.7c-0.9,0-1.4,0-2.3,0c-0.2,0.5-0.3,0.7-0.5,1.2c1.1,0,1.6,0,2.7,0c-0.1,0.3-0.2,0.4-0.3,0.7
				c-1.4,0-2.1,0-3.5,0c0.7-1.8,1.1-2.7,1.8-4.4c1.3,0,2,0,3.3,0C109.3,235.9,109.3,236.1,109.2,236.3z"/>
			<path id="XMLID_4006_" class="st4" d="M118.5,240.1c-0.3-0.6-0.4-0.9-0.7-1.5c-0.4,0-0.6,0-1,0c-0.2,0.6-0.3,0.9-0.5,1.5
				c-0.3,0-0.5,0-0.8,0c0.6-1.8,0.8-2.7,1.4-4.4c0.8,0,1.2,0,2,0c1,0,1.5,0.5,1.3,1.4c-0.2,0.7-0.8,1.2-1.5,1.3
				c0.3,0.7,0.5,1,0.8,1.7C119,240.1,118.8,240.1,118.5,240.1z M118.6,236.4c-0.5,0-0.7,0-1.2,0c-0.2,0.6-0.3,0.9-0.5,1.5
				c0.5,0,0.7,0,1.2,0c0.6,0,1-0.3,1.2-0.7C119.4,236.6,119.2,236.4,118.6,236.4z"/>
			<path id="XMLID_4004_" class="st4" d="M131.1,235.6c0.3,0,0.5,0,0.8,0c-0.3,1.8-0.5,2.7-0.8,4.4c-0.3,0-0.4,0-0.7,0
				c-0.8-1.3-1.2-1.9-1.9-3.1c-0.3,1.3-0.4,1.9-0.6,3.1c-0.3,0-0.5,0-0.8,0c0.4-1.8,0.6-2.7,0.9-4.4c0.3,0,0.4,0,0.7,0
				c0.7,1.2,1.1,1.8,1.9,3.1C130.7,237.5,130.9,236.9,131.1,235.6z"/>
			<path id="XMLID_4001_" class="st4" d="M141.2,240.2c-1.4,0-2.3-1-2.2-2.3c0.1-1.3,1.2-2.3,2.6-2.3s2.3,1,2.2,2.3
				C143.7,239.1,142.7,240.2,141.2,240.2z M141.5,236.3c-0.9,0-1.6,0.7-1.7,1.6c-0.1,0.9,0.5,1.6,1.4,1.6c0.9,0,1.6-0.7,1.7-1.6
				C143,237,142.4,236.3,141.5,236.3z"/>
			<path id="XMLID_3999_" class="st4" d="M163.1,236.4c-1,0-1.5,0-2.6,0c0,0.5,0.1,0.7,0.1,1.2c0.9,0,1.4,0,2.3,0
				c0,0.3,0,0.4,0.1,0.7c-0.9,0-1.4,0-2.3,0c0.1,0.7,0.1,1.1,0.2,1.8c-0.3,0-0.5,0-0.8,0c-0.2-1.8-0.2-2.7-0.4-4.4c1.3,0,2,0,3.4,0
				C163.1,235.9,163.1,236.1,163.1,236.4z"/>
			<path id="XMLID_3997_" class="st4" d="M173.9,236.3c-1,0-1.5,0-2.6,0c0.1,0.5,0.1,0.7,0.2,1.2c0.9,0,1.4,0,2.3,0
				c0.1,0.3,0.1,0.4,0.2,0.7c-0.9,0-1.4,0-2.3,0c0.1,0.5,0.1,0.7,0.2,1.2c1.1,0,1.6,0,2.7,0c0.1,0.3,0.1,0.4,0.2,0.7
				c-1.4,0-2.1,0-3.5,0c-0.3-1.8-0.5-2.7-0.8-4.4c1.3,0,2,0,3.3,0C173.8,235.9,173.8,236.1,173.9,236.3z"/>
			<path id="XMLID_3994_" class="st4" d="M184.1,240.1c-0.7,0-1,0-1.7,0c-0.5-1.8-0.8-2.7-1.3-4.4c0.7,0,1,0,1.7,0
				c1.4,0,2.7,1,3.1,2.2C186.3,239.1,185.6,240.1,184.1,240.1z M183,236.4c-0.4,0-0.5,0-0.9,0c0.4,1.2,0.5,1.8,0.9,3
				c0.4,0,0.6,0,0.9,0c1,0,1.4-0.6,1.1-1.5C184.8,237,184,236.4,183,236.4z"/>
			<path id="XMLID_3992_" class="st4" d="M196.2,236.3c-1,0-1.5,0-2.6,0c0.2,0.5,0.3,0.7,0.5,1.2c0.9,0,1.4,0,2.3,0
				c0.1,0.3,0.2,0.4,0.3,0.7c-0.9,0-1.4,0-2.3,0c0.2,0.5,0.3,0.7,0.5,1.2c1.1,0,1.6,0,2.7,0c0.1,0.3,0.2,0.4,0.3,0.7
				c-1.4,0-2.1,0-3.5,0c-0.7-1.8-1.1-2.7-1.8-4.4c1.3,0,2,0,3.3,0C196,235.9,196.1,236.1,196.2,236.3z"/>
			<path id="XMLID_3989_" class="st4" d="M208.5,240.1c-0.8-0.6-1.2-0.9-1.9-1.5c-0.4,0-0.6,0-1,0c0.3,0.6,0.5,0.9,0.8,1.5
				c-0.3,0-0.5,0-0.8,0c-0.9-1.8-1.3-2.7-2.2-4.4c0.8,0,1.2,0,2,0c1,0,2,0.5,2.4,1.4c0.4,0.7,0.2,1.2-0.4,1.3c0.8,0.7,1.3,1,2.1,1.7
				C209.1,240.1,208.9,240.1,208.5,240.1z M205.6,236.4c-0.5,0-0.7,0-1.2,0c0.3,0.6,0.5,0.9,0.8,1.5c0.5,0,0.7,0,1.2,0
				c0.6,0,0.8-0.3,0.6-0.7C206.7,236.6,206.2,236.4,205.6,236.4z"/>
			<path id="XMLID_3986_" class="st4" d="M221.6,240.1c-0.3,0-0.5,0-0.9,0c-0.5-0.4-0.7-0.6-1.1-1.1c-0.9,0-1.3,0-2.2,0
				c0.1,0.4,0.1,0.6,0.2,1.1c-0.3,0-0.5,0-0.8,0c-0.2-1.8-0.4-2.7-0.7-4.5c0.3,0,0.4,0,0.7,0C218.3,237.1,219.9,238.6,221.6,240.1z
				 M216.9,236.5c0.1,0.7,0.2,1.1,0.3,1.8c0.6,0,1,0,1.6,0C218,237.6,217.7,237.3,216.9,236.5z"/>
			<path id="XMLID_3984_" class="st4" d="M225.9,235.6c0.3,0,0.5,0,0.8,0c1.1,1.5,1.6,2.2,2.7,3.7c1,0,1.5,0,2.5,0
				c0.2,0.3,0.3,0.4,0.5,0.7c-1.3,0-2,0-3.3,0C227.8,238.3,227.2,237.4,225.9,235.6z"/>
		</g>
	</g>
	<g id="XMLID_3947_">
		<radialGradient id="XMLID_2_" cx="149.3885" cy="201.8068" r="83.6409" gradientUnits="userSpaceOnUse">
			<stop  offset="0" style="stop-color:#72C6EF"/>
			<stop  offset="0.3" style="stop-color:#00A7D7"/>
			<stop  offset="0.75" style="stop-color:#0E5C8A"/>
			<stop  offset="1" style="stop-color:#054570"/>
		</radialGradient>
		<path id="XMLID_3980_" class="st5" d="M70.6,240c-1.5,0-1.7-1-0.7-2.3c0.9-1.2,2.7-2.3,4-2.3c0.8,0,1.1,0.2,1.3,0.6
			c-0.4,0.2-0.6,0.4-0.9,0.6c-0.1-0.3-0.4-0.5-0.9-0.5c-0.8,0-2,0.7-2.6,1.6c-0.7,0.9-0.5,1.6,0.4,1.6c0.4,0,0.9-0.1,1.4-0.3
			c0.2-0.3,0.4-0.5,0.6-0.8c-0.5,0-0.7,0-1.2,0c0.2-0.3,0.3-0.4,0.5-0.7c0.8,0,1.2,0,2,0c-0.5,0.7-0.8,1.1-1.3,1.9
			C72.4,239.7,71.5,240,70.6,240z"/>
		<radialGradient id="XMLID_3_" cx="149.387" cy="201.8068" r="83.64" gradientUnits="userSpaceOnUse">
			<stop  offset="0" style="stop-color:#72C6EF"/>
			<stop  offset="0.3" style="stop-color:#00A7D7"/>
			<stop  offset="0.75" style="stop-color:#0E5C8A"/>
			<stop  offset="1" style="stop-color:#054570"/>
		</radialGradient>
		<path id="XMLID_3977_" class="st6" d="M82.6,240c-1.4,0-1.8-1-1-2.3c0.8-1.3,2.4-2.3,3.8-2.3c1.4,0,1.7,1,1,2.3
			C85.7,238.9,84.1,240,82.6,240z M85,236.1c-0.9,0-2,0.7-2.5,1.6c-0.5,0.9-0.3,1.6,0.6,1.6c0.9,0,2-0.7,2.5-1.6
			C86.1,236.8,85.9,236.1,85,236.1z"/>
		<radialGradient id="XMLID_4_" cx="149.3877" cy="201.8086" r="83.6394" gradientUnits="userSpaceOnUse">
			<stop  offset="0" style="stop-color:#72C6EF"/>
			<stop  offset="0.3" style="stop-color:#00A7D7"/>
			<stop  offset="0.75" style="stop-color:#0E5C8A"/>
			<stop  offset="1" style="stop-color:#054570"/>
		</radialGradient>
		<path id="XMLID_3975_" class="st7" d="M98,235.5c0.3,0,0.5,0,0.9,0c-1.4,1.5-2.7,3-4.1,4.5c-0.3,0-0.4,0-0.7,0
			c0.1-1.8,0.2-2.7,0.4-4.5c0.4,0,0.5,0,0.9,0c-0.2,1.4-0.2,2-0.4,3.4C96.2,237.5,96.8,236.8,98,235.5z"/>
		<radialGradient id="XMLID_5_" cx="149.3875" cy="201.8077" r="83.64" gradientUnits="userSpaceOnUse">
			<stop  offset="0" style="stop-color:#72C6EF"/>
			<stop  offset="0.3" style="stop-color:#00A7D7"/>
			<stop  offset="0.75" style="stop-color:#0E5C8A"/>
			<stop  offset="1" style="stop-color:#054570"/>
		</radialGradient>
		<path id="XMLID_3973_" class="st8" d="M109.2,236.2c-1,0-1.5,0-2.6,0c-0.2,0.5-0.3,0.7-0.5,1.2c0.9,0,1.4,0,2.3,0
			c-0.1,0.3-0.2,0.4-0.3,0.7c-0.9,0-1.4,0-2.3,0c-0.2,0.5-0.3,0.7-0.5,1.2c1.1,0,1.6,0,2.7,0c-0.1,0.3-0.2,0.4-0.3,0.7
			c-1.4,0-2.1,0-3.5,0c0.7-1.8,1.1-2.7,1.8-4.4c1.3,0,2,0,3.3,0C109.3,235.8,109.3,235.9,109.2,236.2z"/>
		<radialGradient id="XMLID_6_" cx="149.388" cy="201.8077" r="83.6403" gradientUnits="userSpaceOnUse">
			<stop  offset="0" style="stop-color:#72C6EF"/>
			<stop  offset="0.3" style="stop-color:#00A7D7"/>
			<stop  offset="0.75" style="stop-color:#0E5C8A"/>
			<stop  offset="1" style="stop-color:#054570"/>
		</radialGradient>
		<path id="XMLID_3970_" class="st9" d="M118.5,239.9c-0.3-0.6-0.4-0.9-0.7-1.5c-0.4,0-0.6,0-1,0c-0.2,0.6-0.3,0.9-0.5,1.5
			c-0.3,0-0.5,0-0.8,0c0.6-1.8,0.8-2.7,1.4-4.4c0.8,0,1.2,0,2,0c1,0,1.5,0.5,1.3,1.4c-0.2,0.7-0.8,1.2-1.5,1.3
			c0.3,0.7,0.5,1,0.8,1.7C119,239.9,118.8,239.9,118.5,239.9z M118.6,236.2c-0.5,0-0.7,0-1.2,0c-0.2,0.6-0.3,0.9-0.5,1.5
			c0.5,0,0.7,0,1.2,0c0.6,0,1-0.3,1.2-0.7C119.4,236.4,119.2,236.2,118.6,236.2z"/>
		<radialGradient id="XMLID_7_" cx="149.3882" cy="201.8077" r="83.6407" gradientUnits="userSpaceOnUse">
			<stop  offset="0" style="stop-color:#72C6EF"/>
			<stop  offset="0.3" style="stop-color:#00A7D7"/>
			<stop  offset="0.75" style="stop-color:#0E5C8A"/>
			<stop  offset="1" style="stop-color:#054570"/>
		</radialGradient>
		<path id="XMLID_3968_" class="st10" d="M131.1,235.5c0.3,0,0.5,0,0.8,0c-0.3,1.8-0.5,2.7-0.8,4.4c-0.3,0-0.4,0-0.7,0
			c-0.8-1.3-1.2-1.9-1.9-3.1c-0.3,1.3-0.4,1.9-0.6,3.1c-0.3,0-0.5,0-0.8,0c0.4-1.8,0.6-2.7,0.9-4.4c0.3,0,0.4,0,0.7,0
			c0.7,1.2,1.1,1.8,1.9,3.1C130.7,237.3,130.9,236.7,131.1,235.5z"/>
		<radialGradient id="XMLID_8_" cx="149.3882" cy="201.8068" r="83.6423" gradientUnits="userSpaceOnUse">
			<stop  offset="0" style="stop-color:#72C6EF"/>
			<stop  offset="0.3" style="stop-color:#00A7D7"/>
			<stop  offset="0.75" style="stop-color:#0E5C8A"/>
			<stop  offset="1" style="stop-color:#054570"/>
		</radialGradient>
		<path id="XMLID_3965_" class="st11" d="M141.2,240c-1.4,0-2.3-1-2.2-2.3c0.1-1.3,1.2-2.3,2.6-2.3s2.3,1,2.2,2.3
			C143.7,238.9,142.7,240,141.2,240z M141.5,236.1c-0.9,0-1.6,0.7-1.7,1.6c-0.1,0.9,0.5,1.6,1.4,1.6c0.9,0,1.6-0.7,1.7-1.6
			C143,236.8,142.4,236.1,141.5,236.1z"/>
		<radialGradient id="XMLID_9_" cx="149.3882" cy="201.8077" r="83.6406" gradientUnits="userSpaceOnUse">
			<stop  offset="0" style="stop-color:#72C6EF"/>
			<stop  offset="0.3" style="stop-color:#00A7D7"/>
			<stop  offset="0.75" style="stop-color:#0E5C8A"/>
			<stop  offset="1" style="stop-color:#054570"/>
		</radialGradient>
		<path id="XMLID_3963_" class="st12" d="M163.1,236.2c-1,0-1.5,0-2.6,0c0,0.5,0.1,0.7,0.1,1.2c0.9,0,1.4,0,2.3,0
			c0,0.3,0,0.4,0.1,0.7c-0.9,0-1.4,0-2.3,0c0.1,0.7,0.1,1.1,0.2,1.8c-0.3,0-0.5,0-0.8,0c-0.2-1.8-0.2-2.7-0.4-4.4c1.3,0,2,0,3.4,0
			C163.1,235.8,163.1,235.9,163.1,236.2z"/>
		<radialGradient id="XMLID_10_" cx="149.3885" cy="201.8077" r="83.6403" gradientUnits="userSpaceOnUse">
			<stop  offset="0" style="stop-color:#72C6EF"/>
			<stop  offset="0.3" style="stop-color:#00A7D7"/>
			<stop  offset="0.75" style="stop-color:#0E5C8A"/>
			<stop  offset="1" style="stop-color:#054570"/>
		</radialGradient>
		<path id="XMLID_3961_" class="st13" d="M173.9,236.2c-1,0-1.5,0-2.6,0c0.1,0.5,0.1,0.7,0.2,1.2c0.9,0,1.4,0,2.3,0
			c0.1,0.3,0.1,0.4,0.2,0.7c-0.9,0-1.4,0-2.3,0c0.1,0.5,0.1,0.7,0.2,1.2c1.1,0,1.6,0,2.7,0c0.1,0.3,0.1,0.4,0.2,0.7
			c-1.4,0-2.1,0-3.5,0c-0.3-1.8-0.5-2.7-0.8-4.4c1.3,0,2,0,3.3,0C173.8,235.8,173.8,235.9,173.9,236.2z"/>
		<radialGradient id="XMLID_11_" cx="149.3888" cy="201.8077" r="83.6396" gradientUnits="userSpaceOnUse">
			<stop  offset="0" style="stop-color:#72C6EF"/>
			<stop  offset="0.3" style="stop-color:#00A7D7"/>
			<stop  offset="0.75" style="stop-color:#0E5C8A"/>
			<stop  offset="1" style="stop-color:#054570"/>
		</radialGradient>
		<path id="XMLID_3958_" class="st14" d="M184.1,239.9c-0.7,0-1,0-1.7,0c-0.5-1.8-0.8-2.7-1.3-4.4c0.7,0,1,0,1.7,0
			c1.4,0,2.7,1,3.1,2.2C186.3,238.9,185.6,239.9,184.1,239.9z M183,236.2c-0.4,0-0.5,0-0.9,0c0.4,1.2,0.5,1.8,0.9,3
			c0.4,0,0.6,0,0.9,0c1,0,1.4-0.6,1.1-1.5C184.8,236.8,184,236.2,183,236.2z"/>
		<radialGradient id="XMLID_12_" cx="149.389" cy="201.8077" r="83.6396" gradientUnits="userSpaceOnUse">
			<stop  offset="0" style="stop-color:#72C6EF"/>
			<stop  offset="0.3" style="stop-color:#00A7D7"/>
			<stop  offset="0.75" style="stop-color:#0E5C8A"/>
			<stop  offset="1" style="stop-color:#054570"/>
		</radialGradient>
		<path id="XMLID_3956_" class="st15" d="M196.2,236.2c-1,0-1.5,0-2.6,0c0.2,0.5,0.3,0.7,0.5,1.2c0.9,0,1.4,0,2.3,0
			c0.1,0.3,0.2,0.4,0.3,0.7c-0.9,0-1.4,0-2.3,0c0.2,0.5,0.3,0.7,0.5,1.2c1.1,0,1.6,0,2.7,0c0.1,0.3,0.2,0.4,0.3,0.7
			c-1.4,0-2.1,0-3.5,0c-0.7-1.8-1.1-2.7-1.8-4.4c1.3,0,2,0,3.3,0C196,235.8,196.1,235.9,196.2,236.2z"/>
		<radialGradient id="XMLID_13_" cx="149.3885" cy="201.8077" r="83.64" gradientUnits="userSpaceOnUse">
			<stop  offset="0" style="stop-color:#72C6EF"/>
			<stop  offset="0.3" style="stop-color:#00A7D7"/>
			<stop  offset="0.75" style="stop-color:#0E5C8A"/>
			<stop  offset="1" style="stop-color:#054570"/>
		</radialGradient>
		<path id="XMLID_3953_" class="st16" d="M208.5,239.9c-0.8-0.6-1.2-0.9-1.9-1.5c-0.4,0-0.6,0-1,0c0.3,0.6,0.5,0.9,0.8,1.5
			c-0.3,0-0.5,0-0.8,0c-0.9-1.8-1.3-2.7-2.2-4.4c0.8,0,1.2,0,2,0c1,0,2,0.5,2.4,1.4c0.4,0.7,0.2,1.2-0.4,1.3c0.8,0.7,1.3,1,2.1,1.7
			C209.1,239.9,208.9,239.9,208.5,239.9z M205.6,236.2c-0.5,0-0.7,0-1.2,0c0.3,0.6,0.5,0.9,0.8,1.5c0.5,0,0.7,0,1.2,0
			c0.6,0,0.8-0.3,0.6-0.7C206.7,236.4,206.2,236.2,205.6,236.2z"/>
		<radialGradient id="XMLID_14_" cx="149.3872" cy="201.8072" r="83.6415" gradientUnits="userSpaceOnUse">
			<stop  offset="0" style="stop-color:#72C6EF"/>
			<stop  offset="0.3" style="stop-color:#00A7D7"/>
			<stop  offset="0.75" style="stop-color:#0E5C8A"/>
			<stop  offset="1" style="stop-color:#054570"/>
		</radialGradient>
		<path id="XMLID_3950_" class="st17" d="M221.6,239.9c-0.3,0-0.5,0-0.9,0c-0.5-0.4-0.7-0.6-1.1-1.1c-0.9,0-1.3,0-2.2,0
			c0.1,0.4,0.1,0.6,0.2,1.1c-0.3,0-0.5,0-0.8,0c-0.2-1.8-0.4-2.7-0.7-4.5c0.3,0,0.4,0,0.7,0C218.3,236.9,219.9,238.4,221.6,239.9z
			 M216.9,236.4c0.1,0.7,0.2,1.1,0.3,1.8c0.6,0,1,0,1.6,0C218,237.4,217.7,237.1,216.9,236.4z"/>
		<radialGradient id="XMLID_15_" cx="149.3869" cy="201.8077" r="83.6414" gradientUnits="userSpaceOnUse">
			<stop  offset="0" style="stop-color:#72C6EF"/>
			<stop  offset="0.3" style="stop-color:#00A7D7"/>
			<stop  offset="0.75" style="stop-color:#0E5C8A"/>
			<stop  offset="1" style="stop-color:#054570"/>
		</radialGradient>
		<path id="XMLID_3948_" class="st18" d="M225.9,235.5c0.3,0,0.5,0,0.8,0c1.1,1.5,1.6,2.2,2.7,3.7c1,0,1.5,0,2.5,0
			c0.2,0.3,0.3,0.4,0.5,0.7c-1.3,0-2,0-3.3,0C227.8,238.1,227.2,237.3,225.9,235.5z"/>
	</g>
	<g id="XMLID_3915_">
		<linearGradient id="XMLID_16_" gradientUnits="userSpaceOnUse" x1="101.1622" y1="232.9331" x2="112.3818" y2="232.9331">
			<stop  offset="0" style="stop-color:#CCD3E0"/>
			<stop  offset="1" style="stop-color:#A7B2BE"/>
		</linearGradient>
		<polygon id="XMLID_3946_" class="st19" points="112.4,233.3 101.5,233.3 101.2,232.6 112.1,232.6 		"/>
		<linearGradient id="XMLID_17_" gradientUnits="userSpaceOnUse" x1="144.2664" y1="218.8342" x2="147.2341" y2="218.8342">
			<stop  offset="0" style="stop-color:#CCD3E0"/>
			<stop  offset="1" style="stop-color:#A7B2BE"/>
		</linearGradient>
		<polygon id="XMLID_3945_" class="st20" points="144.3,221.8 147.2,215.8 147.2,216.4 144.6,221.8 		"/>
		<linearGradient id="XMLID_18_" gradientUnits="userSpaceOnUse" x1="147.2341" y1="218.8608" x2="149.7114" y2="218.8608">
			<stop  offset="0" style="stop-color:#CCD3E0"/>
			<stop  offset="1" style="stop-color:#A7B2BE"/>
		</linearGradient>
		<polygon id="XMLID_3944_" class="st21" points="147.2,216.4 147.2,215.9 149.7,221.8 149.5,221.8 		"/>
		<linearGradient id="XMLID_19_" gradientUnits="userSpaceOnUse" x1="191.8273" y1="220.436" x2="203.563" y2="220.436">
			<stop  offset="0" style="stop-color:#CCD3E0"/>
			<stop  offset="1" style="stop-color:#A7B2BE"/>
		</linearGradient>
		<polygon id="XMLID_3943_" class="st22" points="203.6,232.6 192.1,207.6 191.8,208.1 203.2,233.3 		"/>
		<linearGradient id="XMLID_20_" gradientUnits="userSpaceOnUse" x1="203.2402" y1="232.9331" x2="229.9854" y2="232.9331">
			<stop  offset="0" style="stop-color:#CCD3E0"/>
			<stop  offset="1" style="stop-color:#A7B2BE"/>
		</linearGradient>
		<polygon id="XMLID_3942_" class="st23" points="203.6,232.6 203.2,233.3 229.5,233.3 230,232.6 		"/>
		<linearGradient id="XMLID_21_" gradientUnits="userSpaceOnUse" x1="118.606" y1="214.2079" x2="125.5735" y2="214.2079">
			<stop  offset="0" style="stop-color:#CCD3E0"/>
			<stop  offset="1" style="stop-color:#A7B2BE"/>
		</linearGradient>
		<path id="XMLID_3941_" class="st24" d="M118.8,214h4c0.5,0,1,0,1.4,0.1c0.4,0.1,0.7,0.2,1,0.4c0.2,0.1,0.3,0.3,0.4,0.5
			c0-0.1,0-0.2-0.1-0.4c-0.1-0.3-0.3-0.5-0.5-0.7c-0.3-0.2-0.6-0.3-1-0.4c-0.4-0.1-0.9-0.1-1.4-0.1h-4L118.8,214z"/>
		<linearGradient id="XMLID_22_" gradientUnits="userSpaceOnUse" x1="110.2703" y1="210.7417" x2="110.5594" y2="210.7417">
			<stop  offset="0" style="stop-color:#CCD3E0"/>
			<stop  offset="1" style="stop-color:#A7B2BE"/>
		</linearGradient>
		<path id="XMLID_3940_" class="st25" d="M110.3,210.2c0.1,0.2,0.1,0.3,0.1,0.5c0,0.2,0,0.4,0,0.6l0.2-0.4c0,0,0-0.1,0-0.1
			C110.5,210.6,110.4,210.4,110.3,210.2C110.3,210.3,110.3,210.2,110.3,210.2C110.3,210.2,110.3,210.2,110.3,210.2z"/>
		<linearGradient id="XMLID_23_" gradientUnits="userSpaceOnUse" x1="127.7514" y1="218.0948" x2="135.128" y2="218.0948">
			<stop  offset="0" style="stop-color:#CCD3E0"/>
			<stop  offset="1" style="stop-color:#A7B2BE"/>
		</linearGradient>
		<path id="XMLID_3939_" class="st26" d="M135,213.4c0,0.5,0,1-0.1,1.6c-0.1,0.9-0.4,1.7-0.8,2.4c-0.4,0.8-0.9,1.5-1.5,2.1
			c-0.6,0.6-1.3,1.2-2.2,1.7c-0.8,0.5-1.7,1-2.7,1.4l0.3,0.5c0.9-0.4,1.8-0.8,2.6-1.3c0.8-0.5,1.5-1.1,2.1-1.8
			c0.6-0.6,1.1-1.3,1.5-2.1c0.4-0.8,0.6-1.6,0.8-2.4c0.1-0.6,0.1-1.1,0.1-1.6c0-0.4-0.1-0.7-0.1-1C135,213.1,135,213.3,135,213.4z"
			/>
		<linearGradient id="XMLID_24_" gradientUnits="userSpaceOnUse" x1="160.2802" y1="219.0348" x2="178.3886" y2="219.0348">
			<stop  offset="0" style="stop-color:#CCD3E0"/>
			<stop  offset="1" style="stop-color:#A7B2BE"/>
		</linearGradient>
		<path id="XMLID_3938_" class="st27" d="M161.6,218c0.7,0.9,1.7,1.6,2.9,2.2c1.2,0.6,2.6,1.1,4.2,1.5c1.5,0.4,3.2,0.7,4.9,1
			c0.8,0.1,1.5,0.3,2.1,0.4c0.6,0.1,1,0.3,1.4,0.4c0.4,0.1,0.6,0.3,0.8,0.5c0.2,0.2,0.3,0.4,0.3,0.6c0,0,0,0,0,0.1
			c0.1-0.1,0.1-0.1,0.1-0.2c0.1-0.1,0.1-0.3,0-0.5c-0.1-0.2-0.2-0.4-0.3-0.6c-0.2-0.2-0.4-0.3-0.8-0.5c-0.4-0.1-0.8-0.3-1.4-0.4
			c-0.6-0.1-1.3-0.3-2.1-0.4c-1.7-0.3-3.4-0.6-5-1c-1.5-0.4-3-0.9-4.2-1.5c-1.2-0.6-2.2-1.3-2.9-2.2c-0.7-0.9-1.2-1.9-1.3-3.1
			c0-0.4,0-0.7,0-1c-0.1,0.5-0.1,1,0,1.6C160.4,216.1,160.9,217.2,161.6,218z"/>
		<linearGradient id="XMLID_25_" gradientUnits="userSpaceOnUse" x1="182.6768" y1="214.9463" x2="186.1172" y2="214.9463">
			<stop  offset="0" style="stop-color:#CCD3E0"/>
			<stop  offset="1" style="stop-color:#A7B2BE"/>
		</linearGradient>
		<path id="XMLID_3937_" class="st28" d="M182.9,210.3l-0.2,0.5l2.8,8.3c0.2,0.2,0.4,0.3,0.6,0.5L182.9,210.3z"/>
		<linearGradient id="XMLID_26_" gradientUnits="userSpaceOnUse" x1="169.601" y1="214.0566" x2="180.2243" y2="214.0566">
			<stop  offset="0" style="stop-color:#CCD3E0"/>
			<stop  offset="1" style="stop-color:#A7B2BE"/>
		</linearGradient>
		<path id="XMLID_3936_" class="st29" d="M180.2,214.9c-0.8-0.4-1.6-0.7-2.3-1c-0.8-0.3-1.5-0.5-2.3-0.7c-0.7-0.2-1.5-0.3-2.2-0.4
			c-0.7-0.1-1.4-0.1-2-0.1c-0.3,0-0.6,0-0.9,0.1c-0.2,0-0.4,0.1-0.6,0.2c-0.1,0.1-0.2,0.2-0.3,0.3c-0.1,0.1-0.1,0.2,0,0.4l0,0.1
			c0,0,0,0,0,0c0.1-0.1,0.1-0.1,0.2-0.2c0.1-0.1,0.3-0.1,0.6-0.2c0.2,0,0.5-0.1,0.9-0.1c0.6,0,1.3,0,2,0.1c0.7,0.1,1.4,0.2,2.2,0.4
			c0.7,0.2,1.5,0.4,2.3,0.7c0.8,0.3,1.5,0.6,2.3,1L180.2,214.9z"/>
		<linearGradient id="XMLID_27_" gradientUnits="userSpaceOnUse" x1="180.0444" y1="212.852" x2="182.8729" y2="212.852">
			<stop  offset="0" style="stop-color:#CCD3E0"/>
			<stop  offset="1" style="stop-color:#A7B2BE"/>
		</linearGradient>
		<polygon id="XMLID_3935_" class="st30" points="182.9,210.3 180.2,214.9 180,215.4 182.7,210.8 		"/>
		<linearGradient id="XMLID_28_" gradientUnits="userSpaceOnUse" x1="181.7581" y1="208.7112" x2="182.7197" y2="208.7112">
			<stop  offset="0" style="stop-color:#CCD3E0"/>
			<stop  offset="1" style="stop-color:#A7B2BE"/>
		</linearGradient>
		<path id="XMLID_3934_" class="st31" d="M182.7,209.8l-0.8-2.2l-0.2,0.5l0.5,1.5C182.4,209.7,182.6,209.8,182.7,209.8z"/>
		<linearGradient id="XMLID_29_" gradientUnits="userSpaceOnUse" x1="102.6004" y1="216.2862" x2="109.1208" y2="216.2862">
			<stop  offset="0" style="stop-color:#CCD3E0"/>
			<stop  offset="1" style="stop-color:#A7B2BE"/>
		</linearGradient>
		<path id="XMLID_3933_" class="st32" d="M104.9,217.9c0.6-0.2,1.2-0.5,1.8-0.9c0.5-0.3,1.1-0.7,1.5-1.1c0.1-0.1,0.2-0.2,0.3-0.2
			l0.7-1.6c-0.3,0.5-0.8,0.9-1.2,1.3c-0.5,0.4-1,0.7-1.5,1.1c-0.6,0.3-1.2,0.6-1.8,0.8c-0.6,0.2-1.3,0.5-2,0.6
			c0.4,0.1,0.7,0.2,1.1,0.4C104.1,218.2,104.5,218.1,104.9,217.9z"/>
		<linearGradient id="XMLID_30_" gradientUnits="userSpaceOnUse" x1="89.2718" y1="221.6033" x2="96.6676" y2="221.6033">
			<stop  offset="0" style="stop-color:#CCD3E0"/>
			<stop  offset="1" style="stop-color:#A7B2BE"/>
		</linearGradient>
		<path id="XMLID_3932_" class="st33" d="M89.6,221.7h5c0.5,0,1,0,1.3,0.1c0.3,0.1,0.6,0.2,0.7,0.4c0-0.2-0.1-0.4-0.3-0.6
			c-0.2-0.2-0.4-0.3-0.8-0.4c-0.4-0.1-0.8-0.1-1.3-0.1h-5L89.6,221.7z"/>
		<linearGradient id="XMLID_31_" gradientUnits="userSpaceOnUse" x1="86.8931" y1="223.0503" x2="89.6489" y2="223.0503">
			<stop  offset="0" style="stop-color:#CCD3E0"/>
			<stop  offset="1" style="stop-color:#A7B2BE"/>
		</linearGradient>
		<polygon id="XMLID_3931_" class="st34" points="89.6,221.7 89.3,221.1 86.9,225 87.7,225 		"/>
		<linearGradient id="XMLID_32_" gradientUnits="userSpaceOnUse" x1="190.3671" y1="232.9331" x2="201.5936" y2="232.9331">
			<stop  offset="0" style="stop-color:#CCD3E0"/>
			<stop  offset="1" style="stop-color:#A7B2BE"/>
		</linearGradient>
		<polygon id="XMLID_3930_" class="st35" points="190.6,232.6 190.4,233.3 201.3,233.3 201.6,232.6 		"/>
		<linearGradient id="XMLID_33_" gradientUnits="userSpaceOnUse" x1="188.58" y1="230.3009" x2="190.6107" y2="230.3009">
			<stop  offset="0" style="stop-color:#CCD3E0"/>
			<stop  offset="1" style="stop-color:#A7B2BE"/>
		</linearGradient>
		<path id="XMLID_3929_" class="st36" d="M190.6,232.6l-1.8-5.3c-0.1,0.2-0.1,0.5-0.2,0.7l1.8,5.2L190.6,232.6z"/>
		<linearGradient id="XMLID_34_" gradientUnits="userSpaceOnUse" x1="164.9831" y1="231.1227" x2="188.454" y2="231.1227">
			<stop  offset="0" style="stop-color:#CCD3E0"/>
			<stop  offset="1" style="stop-color:#A7B2BE"/>
		</linearGradient>
		<path id="XMLID_3928_" class="st37" d="M187.6,229.7c-0.6,0.7-1.4,1.3-2.3,1.9c-1,0.5-2.1,0.9-3.5,1.2c-1.3,0.3-2.8,0.4-4.5,0.4
			c-1.1,0-2.2-0.1-3.3-0.2c-1.1-0.1-2.2-0.3-3.2-0.5c-1-0.2-2.1-0.4-3-0.7c-1-0.3-1.9-0.6-2.8-1l0.5,0.9c0.7,0.3,1.5,0.5,2.2,0.8
			c1,0.3,2,0.5,3,0.7c1,0.2,2.1,0.4,3.2,0.5c1.1,0.1,2.2,0.2,3.3,0.2c1.6,0,3.1-0.1,4.4-0.4c1.3-0.3,2.5-0.7,3.4-1.2
			c1-0.5,1.7-1.1,2.3-1.9c0.5-0.6,0.8-1.3,1.1-2C188.2,228.9,188,229.3,187.6,229.7z"/>
		<linearGradient id="XMLID_35_" gradientUnits="userSpaceOnUse" x1="94.178" y1="213.2966" x2="100.3783" y2="213.2966">
			<stop  offset="0" style="stop-color:#CCD3E0"/>
			<stop  offset="1" style="stop-color:#A7B2BE"/>
		</linearGradient>
		<path id="XMLID_3927_" class="st38" d="M100.1,213.2c-0.2-0.1-0.4-0.2-0.8-0.3c-0.3-0.1-0.7-0.1-1.2-0.1h-3.9l0.3,0.5h3.9
			c0.5,0,0.9,0,1.2,0.1c0.3,0.1,0.6,0.2,0.7,0.3c0,0,0,0,0-0.1C100.4,213.5,100.3,213.3,100.1,213.2z"/>
		<linearGradient id="XMLID_36_" gradientUnits="userSpaceOnUse" x1="92.2887" y1="214.4139" x2="94.5249" y2="214.4139">
			<stop  offset="0" style="stop-color:#CCD3E0"/>
			<stop  offset="1" style="stop-color:#A7B2BE"/>
		</linearGradient>
		<polygon id="XMLID_3926_" class="st39" points="94.2,212.8 92.3,216 93,216 94.5,213.4 		"/>
		<linearGradient id="XMLID_37_" gradientUnits="userSpaceOnUse" x1="71.6897" y1="230.8205" x2="102.991" y2="230.8205">
			<stop  offset="0" style="stop-color:#CCD3E0"/>
			<stop  offset="1" style="stop-color:#A7B2BE"/>
		</linearGradient>
		<path id="XMLID_3925_" class="st40" d="M103,228.4c-0.7,0.6-1.5,1.2-2.5,1.7c-0.9,0.5-1.9,1-3,1.3c-1.1,0.4-2.3,0.7-3.6,0.9
			c-1.3,0.2-2.6,0.3-4,0.3H71.7l0.5,0.7h18.1c1.4,0,2.7-0.1,4-0.3c1.3-0.2,2.4-0.5,3.5-0.9c1.1-0.4,2.1-0.8,3-1.3
			c0.6-0.3,1.1-0.7,1.6-1L103,228.4z"/>
		<linearGradient id="XMLID_38_" gradientUnits="userSpaceOnUse" x1="154.034" y1="232.9331" x2="165.9722" y2="232.9331">
			<stop  offset="0" style="stop-color:#CCD3E0"/>
			<stop  offset="1" style="stop-color:#A7B2BE"/>
		</linearGradient>
		<polygon id="XMLID_3924_" class="st41" points="154,233.3 154.1,232.6 166,232.6 165.9,233.3 		"/>
		<linearGradient id="XMLID_39_" gradientUnits="userSpaceOnUse" x1="152.2546" y1="230.8651" x2="154.0537" y2="230.8651">
			<stop  offset="0" style="stop-color:#CCD3E0"/>
			<stop  offset="1" style="stop-color:#A7B2BE"/>
		</linearGradient>
		<polygon id="XMLID_3923_" class="st42" points="152.3,229.1 152.3,228.5 154.1,232.6 154,233.3 		"/>
		<linearGradient id="XMLID_40_" gradientUnits="userSpaceOnUse" x1="141.1792" y1="228.7833" x2="152.2634" y2="228.7833">
			<stop  offset="0" style="stop-color:#CCD3E0"/>
			<stop  offset="1" style="stop-color:#A7B2BE"/>
		</linearGradient>
		<polygon id="XMLID_3922_" class="st43" points="152.3,228.5 141.2,228.5 141.2,229.1 152.3,229.1 		"/>
		<linearGradient id="XMLID_41_" gradientUnits="userSpaceOnUse" x1="139.1299" y1="230.8651" x2="141.2383" y2="230.8651">
			<stop  offset="0" style="stop-color:#CCD3E0"/>
			<stop  offset="1" style="stop-color:#A7B2BE"/>
		</linearGradient>
		<polygon id="XMLID_3921_" class="st44" points="141.2,229.1 139.2,233.3 139.1,232.6 141.2,228.5 		"/>
		<linearGradient id="XMLID_42_" gradientUnits="userSpaceOnUse" x1="120.6852" y1="232.9331" x2="139.2016" y2="232.9331">
			<stop  offset="0" style="stop-color:#CCD3E0"/>
			<stop  offset="1" style="stop-color:#A7B2BE"/>
		</linearGradient>
		<polygon id="XMLID_3920_" class="st45" points="139.2,233.3 120.9,233.3 120.7,232.6 139.1,232.6 		"/>
		<linearGradient id="XMLID_43_" gradientUnits="userSpaceOnUse" x1="117.1696" y1="228.7048" x2="120.8699" y2="228.7048">
			<stop  offset="0" style="stop-color:#CCD3E0"/>
			<stop  offset="1" style="stop-color:#A7B2BE"/>
		</linearGradient>
		<polygon id="XMLID_3919_" class="st46" points="117.2,224.1 120.7,232.6 120.9,233.3 117.4,224.8 		"/>
		<linearGradient id="XMLID_44_" gradientUnits="userSpaceOnUse" x1="114.9961" y1="224.4483" x2="117.3759" y2="224.4483">
			<stop  offset="0" style="stop-color:#CCD3E0"/>
			<stop  offset="1" style="stop-color:#A7B2BE"/>
		</linearGradient>
		<polygon id="XMLID_3918_" class="st47" points="115.2,224.8 117.4,224.8 117.2,224.1 115,224.1 		"/>
		<linearGradient id="XMLID_45_" gradientUnits="userSpaceOnUse" x1="112.1449" y1="228.7048" x2="115.2155" y2="228.7048">
			<stop  offset="0" style="stop-color:#CCD3E0"/>
			<stop  offset="1" style="stop-color:#A7B2BE"/>
		</linearGradient>
		<polygon id="XMLID_3917_" class="st48" points="115.2,224.8 112.4,233.3 112.1,232.6 115,224.1 		"/>
		<linearGradient id="XMLID_46_" gradientUnits="userSpaceOnUse" x1="117.0733" y1="215.7021" x2="118.8033" y2="215.7021">
			<stop  offset="0" style="stop-color:#CCD3E0"/>
			<stop  offset="1" style="stop-color:#A7B2BE"/>
		</linearGradient>
		<polygon id="XMLID_3916_" class="st49" points="118.8,214 118.6,213.4 117.1,218 117.5,218 		"/>
	</g>
	<g id="XMLID_3905_">
		<radialGradient id="XMLID_47_" cx="148.6988" cy="218.9222" r="81.5164" gradientUnits="userSpaceOnUse">
			<stop  offset="0" style="stop-color:#72C6EF"/>
			<stop  offset="0.3" style="stop-color:#00A7D7"/>
			<stop  offset="0.75" style="stop-color:#0E5C8A"/>
			<stop  offset="1" style="stop-color:#054570"/>
		</radialGradient>
		<polygon id="XMLID_3914_" class="st50" points="200.7,207.6 209.9,224.1 224.2,224.1 230,232.6 203.6,232.6 192.1,207.6 		"/>
		
			<radialGradient id="XMLID_48_" cx="148.6985" cy="37015.3672" r="81.5165" gradientTransform="matrix(1 0 0 0.1868 0 -6696.6963)" gradientUnits="userSpaceOnUse">
			<stop  offset="0" style="stop-color:#72C6EF"/>
			<stop  offset="0.3" style="stop-color:#00A7D7"/>
			<stop  offset="0.75" style="stop-color:#0E5C8A"/>
			<stop  offset="1" style="stop-color:#054570"/>
		</radialGradient>
		<path id="XMLID_3906_" class="st51" d="M181.9,207.6h8.6l11.1,25h-11l-1.8-5.3c-0.2,0.9-0.6,1.7-1.2,2.4c-0.6,0.7-1.4,1.3-2.3,1.9
			c-1,0.5-2.1,0.9-3.5,1.2c-1.3,0.3-2.8,0.4-4.5,0.4c-1.1,0-2.2-0.1-3.3-0.2c-1.1-0.1-2.2-0.3-3.2-0.5c-1-0.2-2.1-0.4-3-0.7
			c-1-0.3-1.9-0.6-2.8-1l1,1.8h-11.9l-1.8-4.1h-11.1l-2,4.1h-5.9h-5.8h-6.7l-3.5-8.5H115l-2.9,8.5h-11l1.8-4.2
			c-0.7,0.6-1.5,1.2-2.5,1.7c-0.9,0.5-1.9,1-3,1.3c-1.1,0.4-2.3,0.7-3.6,0.9c-1.3,0.2-2.6,0.3-4,0.3H71.7l17.2-25h14.4
			c0.9,0,1.7,0,2.4,0.1c0.7,0.1,1.3,0.2,1.8,0.3c0.5,0.2,1,0.3,1.4,0.6c0.4,0.2,0.7,0.5,0.9,0.8c0.1,0.1,0.2,0.2,0.3,0.4
			c0.1,0.1,0.1,0.3,0.2,0.4c0.1,0.2,0.1,0.3,0.1,0.5c0,0.2,0,0.4,0,0.6l1.6-3.7h12.6c1.1,0,2.2,0.1,3.1,0.2c0.9,0.1,1.7,0.3,2.4,0.5
			c0.7,0.2,1.3,0.4,1.9,0.7c0.5,0.3,1,0.6,1.4,1c0.3,0.3,0.6,0.6,0.9,1c0.2,0.4,0.4,0.7,0.6,1.2c0.1,0.4,0.2,0.9,0.2,1.4
			c0,0.5,0,1-0.1,1.6c-0.1,0.9-0.4,1.7-0.8,2.4c-0.4,0.8-0.9,1.5-1.5,2.1c-0.6,0.6-1.3,1.2-2.2,1.7c-0.8,0.5-1.7,1-2.7,1.4l2.8,5
			l12.8-20.2h8.5l10.2,18.1l2.8-3.5c0.9,0.5,1.8,1,2.7,1.4c0.9,0.4,1.9,0.7,2.8,1c1,0.3,1.9,0.5,2.8,0.6c0.9,0.1,1.9,0.2,2.8,0.2
			c0.5,0,0.8,0,1.2-0.1c0.3-0.1,0.6-0.1,0.8-0.2c0.2-0.1,0.3-0.2,0.4-0.4c0.1-0.1,0.1-0.3,0-0.5c-0.1-0.2-0.2-0.4-0.3-0.6
			c-0.2-0.2-0.4-0.3-0.8-0.5c-0.4-0.1-0.8-0.3-1.4-0.4c-0.6-0.1-1.3-0.3-2.1-0.4c-1.7-0.3-3.4-0.6-5-1c-1.5-0.4-3-0.9-4.2-1.5
			c-1.2-0.6-2.2-1.3-2.9-2.2c-0.7-0.9-1.2-1.9-1.3-3.1c-0.1-1.1,0-2.1,0.4-2.9c0.4-0.9,1-1.6,1.9-2.2c0.9-0.6,1.9-1.1,3.2-1.4
			c1.3-0.3,2.8-0.5,4.6-0.5c1.2,0,2.3,0.1,3.4,0.2c1.1,0.1,2.1,0.3,3.1,0.5c1,0.2,2,0.5,2.9,0.8c0.9,0.3,1.9,0.7,2.8,1.1
			L181.9,207.6z M186.1,219.6l-3.2-9.4l-2.6,4.6c-0.8-0.4-1.6-0.7-2.3-1c-0.8-0.3-1.5-0.5-2.3-0.7c-0.7-0.2-1.5-0.3-2.2-0.4
			c-0.7-0.1-1.4-0.1-2-0.1c-0.3,0-0.6,0-0.9,0.1c-0.2,0-0.4,0.1-0.6,0.2c-0.1,0.1-0.2,0.2-0.3,0.3c-0.1,0.1-0.1,0.2,0,0.4l0,0.1
			c0,0.2,0.1,0.3,0.2,0.4c0.1,0.1,0.4,0.2,0.7,0.4c0.3,0.1,0.7,0.2,1.2,0.3c0.5,0.1,1.1,0.2,1.9,0.3c1.4,0.2,2.7,0.4,3.9,0.7
			c1.2,0.3,2.4,0.6,3.4,0.9c1.1,0.4,2,0.8,2.9,1.2C184.7,218.4,185.4,219,186.1,219.6 M125.5,215.7L125.5,215.7c0.1-0.4,0.1-0.8,0-1
			c-0.1-0.3-0.3-0.5-0.5-0.7c-0.3-0.2-0.6-0.3-1-0.4c-0.4-0.1-0.9-0.1-1.4-0.1h-4l-1.5,4.5h4.1c0.6,0,1.1-0.1,1.6-0.2
			c0.5-0.1,0.9-0.3,1.3-0.5c0.4-0.2,0.7-0.4,0.9-0.7C125.2,216.3,125.4,216,125.5,215.7 M106.4,220.6l2.8-6.4
			c-0.3,0.5-0.8,0.9-1.2,1.3c-0.5,0.4-1,0.7-1.5,1.1c-0.6,0.3-1.2,0.6-1.8,0.8c-0.6,0.2-1.3,0.5-2,0.6c0.5,0.1,0.9,0.3,1.3,0.4
			c0.4,0.2,0.8,0.4,1.1,0.6c0.3,0.2,0.6,0.4,0.8,0.7C106,220,106.2,220.3,106.4,220.6 M144.3,221.8h5.4l-2.5-6L144.3,221.8
			 M96.4,223.1L96.4,223.1c0.2-0.4,0.3-0.6,0.2-0.9c0-0.2-0.1-0.4-0.3-0.6c-0.2-0.2-0.4-0.3-0.8-0.4c-0.4-0.1-0.8-0.1-1.3-0.1h-5
			l-2.4,4H92c0.6,0,1.1-0.1,1.6-0.1c0.5-0.1,0.9-0.2,1.3-0.4c0.4-0.2,0.7-0.4,1-0.6C96.1,223.6,96.3,223.3,96.4,223.1 M94.2,212.8
			l-1.9,3.2h4.1c0.5,0,1,0,1.4-0.1c0.4-0.1,0.8-0.2,1.1-0.3c0.3-0.1,0.6-0.3,0.8-0.5c0.2-0.2,0.4-0.4,0.5-0.7l0-0.1
			c0.1-0.2,0.2-0.5,0.2-0.7c0-0.2-0.1-0.3-0.3-0.5c-0.2-0.1-0.4-0.2-0.8-0.3c-0.3-0.1-0.7-0.1-1.2-0.1H94.2z"/>
	</g>
	<radialGradient id="XMLID_49_" cx="143.8085" cy="191.5778" r="28.6847" gradientUnits="userSpaceOnUse">
		<stop  offset="0" style="stop-color:#A0D1EC"/>
		<stop  offset="0.2" style="stop-color:#7EAFD4"/>
		<stop  offset="0.5" style="stop-color:#197BB2"/>
		<stop  offset="0.9" style="stop-color:#164570"/>
		<stop  offset="1" style="stop-color:#1C9AD6"/>
	</radialGradient>
	<circle id="XMLID_3904_" class="st52" cx="148.4" cy="197.1" r="21.8"/>
	<radialGradient id="XMLID_50_" cx="143.8482" cy="190.1201" r="28.8386" gradientUnits="userSpaceOnUse">
		<stop  offset="0" style="stop-color:#6993B2"/>
		<stop  offset="0.6439" style="stop-color:#00314F"/>
		<stop  offset="1" style="stop-color:#000018"/>
	</radialGradient>
	<path id="XMLID_3903_" class="st53" d="M169.7,202.1c-0.8-1.4-2.1-2.8-3.9-4.3c-3.7-3.1-9-5.9-14.9-7.9c-5.5-1.9-11.1-3-15.7-3
		c-2.7,0-4.9,0.4-6.6,1c-0.6,1.2-1,2.5-1.3,3.8c0.8-1.6,3.8-2.6,7.9-2.6c4.3,0,9.7,1,15,2.8c5.6,1.9,10.6,4.6,14.1,7.4
		c2.9,2.4,4.4,4.7,4.2,6.4C168.9,204.7,169.4,203.4,169.7,202.1z"/>
	<radialGradient id="XMLID_51_" cx="143.4134" cy="192.1088" r="28.5805" gradientUnits="userSpaceOnUse">
		<stop  offset="0" style="stop-color:#FFF33E"/>
		<stop  offset="0.5" style="stop-color:#FFD400"/>
		<stop  offset="0.9" style="stop-color:#B3842A"/>
		<stop  offset="1" style="stop-color:#FFDD00"/>
	</radialGradient>
	<path id="XMLID_3902_" class="st54" d="M152.2,186.2c-11.8-4.1-22.7-3.7-24.2,0.7l-1.6,4.7c1.5-4.5,12.4-4.8,24.2-0.7
		c11.8,4.1,20.2,11,18.6,15.5l1.6-4.7C172.3,197.2,164,190.3,152.2,186.2z"/>
	<radialGradient id="XMLID_52_" cx="136.0359" cy="188.4164" r="37.8195" gradientUnits="userSpaceOnUse">
		<stop  offset="0" style="stop-color:#C0A916"/>
		<stop  offset="0.5" style="stop-color:#78550E"/>
		<stop  offset="0.88" style="stop-color:#5A4216"/>
		<stop  offset="1" style="stop-color:#BB8A0B"/>
	</radialGradient>
	<path id="XMLID_3901_" class="st55" d="M150.6,190.9c-11.8-4.1-22.7-3.7-24.2,0.7c-0.3,1-0.2,2.1,0.4,3.3c0-0.2,0-0.5,0.1-0.7
		c-0.3-0.8-0.3-1.6,0-2.3c1.5-4.3,12.1-4.5,23.6-0.6c11.6,4,19.8,10.7,18.3,15c-0.2,0.7-0.7,1.3-1.4,1.8c-0.1,0.2-0.2,0.4-0.4,0.6
		c1.2-0.6,2-1.4,2.3-2.4C170.7,201.9,162.4,195,150.6,190.9z"/>
	<g id="XMLID_3898_">
		<linearGradient id="XMLID_53_" gradientUnits="userSpaceOnUse" x1="127.9739" y1="189.5699" x2="126.5934" y2="193.6389">
			<stop  offset="0" style="stop-color:#48370E"/>
			<stop  offset="1" style="stop-color:#8B6129"/>
		</linearGradient>
		<path id="XMLID_3900_" class="st56" d="M127.6,190.7c-0.4,0.4-0.6,0.8-0.8,1.3c-0.2,0.7-0.2,1.5,0,2.3
			C127,193,127.2,191.8,127.6,190.7z"/>
		<linearGradient id="XMLID_54_" gradientUnits="userSpaceOnUse" x1="169.1981" y1="203.5567" x2="167.8175" y2="207.6256">
			<stop  offset="0" style="stop-color:#48370E"/>
			<stop  offset="1" style="stop-color:#8B6129"/>
		</linearGradient>
		<path id="XMLID_3899_" class="st57" d="M167.2,208.2c0.7-0.5,1.2-1.1,1.4-1.8c0.2-0.5,0.2-1,0.1-1.5
			C168.4,206,167.8,207.1,167.2,208.2z"/>
	</g>
	<g id="XMLID_3859_">
		<radialGradient id="XMLID_55_" cx="143.4135" cy="192.109" r="28.5809" gradientUnits="userSpaceOnUse">
			<stop  offset="0" style="stop-color:#2BA15D"/>
			<stop  offset="0.5" style="stop-color:#27793D"/>
			<stop  offset="0.9" style="stop-color:#0C592E"/>
			<stop  offset="1" style="stop-color:#3A7B3C"/>
		</radialGradient>
		<path id="XMLID_3895_" class="st58" d="M129.7,186.2c0.1-0.2,0.3-0.4,0.4-0.6c0.2-0.2,0.3-0.3,0.5-0.5c0.2-0.1,0.4-0.2,0.6-0.3
			c0.2-0.1,0.4-0.1,0.6-0.1c0.1,0,0.3,0.1,0.3,0.2c0.1,0.1,0.1,0.2,0.1,0.4c0,0.2,0,0.3-0.1,0.6c-0.1,0.2-0.2,0.4-0.3,0.6
			c-0.1,0.2-0.3,0.4-0.4,0.5c-0.2,0.2-0.3,0.3-0.5,0.4c-0.2,0.1-0.4,0.2-0.6,0.3c-0.2,0.1-0.4,0.1-0.5,0.1c-0.1,0-0.3-0.1-0.3-0.2
			c-0.1-0.1-0.1-0.2-0.1-0.4c0-0.2,0-0.3,0.1-0.5C129.5,186.6,129.6,186.4,129.7,186.2z M130,186.9c0,0.1,0,0.2,0,0.3
			c0,0.1,0.1,0.1,0.2,0.1c0.1,0,0.2,0,0.3,0c0.1,0,0.3-0.1,0.4-0.2c0.1-0.1,0.2-0.2,0.3-0.3c0.1-0.1,0.2-0.2,0.2-0.3
			c0.1-0.1,0.1-0.2,0.2-0.4c0-0.1,0.1-0.2,0.1-0.3c0-0.1,0-0.2,0-0.3c0-0.1-0.1-0.1-0.2-0.1c-0.1,0-0.2,0-0.3,0
			c-0.1,0-0.3,0.1-0.4,0.2c-0.1,0.1-0.2,0.2-0.3,0.3c-0.1,0.1-0.2,0.2-0.2,0.4c-0.1,0.1-0.1,0.2-0.2,0.4
			C130,186.7,130,186.8,130,186.9z"/>
		<radialGradient id="XMLID_56_" cx="143.4135" cy="192.1089" r="28.5807" gradientUnits="userSpaceOnUse">
			<stop  offset="0" style="stop-color:#2BA15D"/>
			<stop  offset="0.5" style="stop-color:#27793D"/>
			<stop  offset="0.9" style="stop-color:#0C592E"/>
			<stop  offset="1" style="stop-color:#3A7B3C"/>
		</radialGradient>
		<path id="XMLID_3892_" class="st59" d="M134.6,184.4c0.1,0,0.2,0,0.3,0c0.1,0,0.2,0.1,0.2,0.1c0.1,0.1,0.1,0.1,0.1,0.2
			c0,0.1,0,0.2,0,0.3c-0.1,0.2-0.1,0.3-0.3,0.4c-0.1,0.1-0.3,0.2-0.5,0.3l0,0c0.1,0,0.1,0,0.2,0.1c0,0,0.1,0.1,0.1,0.1
			c0,0.1,0,0.1,0,0.2c0,0.1,0,0.1,0,0.2c0,0,0,0.1,0,0.2c0,0.1,0,0.1,0,0.2c0,0.1,0,0.1,0,0.2c0,0.1,0,0.1,0,0.1l-0.7,0.1
			c0-0.1,0-0.2,0-0.3c0-0.1,0.1-0.2,0.1-0.4c0-0.1,0-0.2,0-0.3c0-0.1-0.2-0.1-0.3-0.1l-0.7,0.1l-0.4,1.1l-0.7,0.1l1-2.8L134.6,184.4
			z M133.9,185.7c0.1,0,0.3-0.1,0.4-0.1c0.1-0.1,0.2-0.2,0.2-0.3c0-0.1,0-0.2,0-0.3c-0.1-0.1-0.2-0.1-0.3-0.1l-0.7,0.1l-0.3,0.8
			L133.9,185.7z"/>
		<radialGradient id="XMLID_57_" cx="143.4134" cy="192.1087" r="28.5804" gradientUnits="userSpaceOnUse">
			<stop  offset="0" style="stop-color:#2BA15D"/>
			<stop  offset="0.5" style="stop-color:#27793D"/>
			<stop  offset="0.9" style="stop-color:#0C592E"/>
			<stop  offset="1" style="stop-color:#3A7B3C"/>
		</radialGradient>
		<path id="XMLID_3889_" class="st60" d="M137.1,184.3c0.2,0,0.4,0,0.5,0.1c0.1,0.1,0.3,0.1,0.3,0.3c0.1,0.1,0.1,0.3,0.1,0.4
			c0,0.2,0,0.4-0.1,0.6c-0.1,0.2-0.2,0.4-0.3,0.6c-0.1,0.2-0.3,0.3-0.4,0.4c-0.2,0.1-0.3,0.2-0.5,0.3c-0.2,0.1-0.4,0.1-0.6,0.1
			l-1.3,0l1-2.8L137.1,184.3z M136.3,186.6c0.1,0,0.2,0,0.3,0c0.1,0,0.2-0.1,0.3-0.1c0.1-0.1,0.2-0.2,0.3-0.3
			c0.1-0.1,0.1-0.2,0.2-0.4c0-0.1,0.1-0.3,0.1-0.4c0-0.1,0-0.2,0-0.3c0-0.1-0.1-0.1-0.2-0.2c-0.1,0-0.2-0.1-0.4-0.1l-0.5,0l-0.6,1.8
			L136.3,186.6z"/>
		<radialGradient id="XMLID_58_" cx="143.4135" cy="192.1088" r="28.5807" gradientUnits="userSpaceOnUse">
			<stop  offset="0" style="stop-color:#2BA15D"/>
			<stop  offset="0.5" style="stop-color:#27793D"/>
			<stop  offset="0.9" style="stop-color:#0C592E"/>
			<stop  offset="1" style="stop-color:#3A7B3C"/>
		</radialGradient>
		<path id="XMLID_3887_" class="st61" d="M141,184.5l-0.2,0.5l-1.6-0.1l-0.2,0.6l1.4,0.1l-0.2,0.5l-1.4-0.1l-0.2,0.7l1.6,0.1
			l-0.2,0.5l-2.3-0.2l1-2.8L141,184.5z"/>
		<radialGradient id="XMLID_59_" cx="143.4133" cy="192.1089" r="28.581" gradientUnits="userSpaceOnUse">
			<stop  offset="0" style="stop-color:#2BA15D"/>
			<stop  offset="0.5" style="stop-color:#27793D"/>
			<stop  offset="0.9" style="stop-color:#0C592E"/>
			<stop  offset="1" style="stop-color:#3A7B3C"/>
		</radialGradient>
		<path id="XMLID_3885_" class="st62" d="M142.2,184.7l0,2.1l0,0l1.3-1.8l0.9,0.2l-1,2.8l-0.6-0.1l0.7-2l0,0l-1.4,1.9l-0.5-0.1
			l0-2.1l0,0l-0.7,2l-0.6-0.1l1-2.8L142.2,184.7z"/>
		<radialGradient id="XMLID_60_" cx="143.4134" cy="192.1088" r="28.5802" gradientUnits="userSpaceOnUse">
			<stop  offset="0" style="stop-color:#2BA15D"/>
			<stop  offset="0.5" style="stop-color:#27793D"/>
			<stop  offset="0.9" style="stop-color:#0C592E"/>
			<stop  offset="1" style="stop-color:#3A7B3C"/>
		</radialGradient>
		<path id="XMLID_3883_" class="st63" d="M148,185.9l-0.2,0.5l-1.5-0.4l-0.2,0.6l1.4,0.3l-0.2,0.5l-1.4-0.3l-0.2,0.7l1.6,0.4
			l-0.2,0.5l-2.2-0.5l1-2.8L148,185.9z"/>
		<radialGradient id="XMLID_61_" cx="143.4135" cy="192.1089" r="28.5806" gradientUnits="userSpaceOnUse">
			<stop  offset="0" style="stop-color:#2BA15D"/>
			<stop  offset="0.5" style="stop-color:#27793D"/>
			<stop  offset="0.9" style="stop-color:#0C592E"/>
			<stop  offset="1" style="stop-color:#3A7B3C"/>
		</radialGradient>
		<path id="XMLID_3880_" class="st64" d="M150.6,186.7c0.2,0.1,0.3,0.1,0.4,0.2c0.1,0.1,0.2,0.2,0.2,0.3c0,0.1,0.1,0.2,0.1,0.3
			c0,0.1,0,0.2-0.1,0.4c0,0.1-0.1,0.2-0.2,0.3s-0.2,0.2-0.3,0.2c-0.1,0.1-0.2,0.1-0.4,0.1c-0.1,0-0.3,0-0.5-0.1l-0.7-0.2l-0.3,1
			l-0.6-0.2l1-2.8L150.6,186.7z M150,188c0.1,0,0.1,0,0.2,0c0.1,0,0.1,0,0.2,0c0.1,0,0.1,0,0.2-0.1c0,0,0.1-0.1,0.1-0.2
			c0-0.1,0-0.2,0-0.2c0-0.1,0-0.1-0.1-0.2c0,0-0.1-0.1-0.2-0.1c-0.1,0-0.1-0.1-0.2-0.1l-0.5-0.2l-0.3,0.8L150,188z"/>
		<radialGradient id="XMLID_62_" cx="143.4131" cy="192.1087" r="28.5814" gradientUnits="userSpaceOnUse">
			<stop  offset="0" style="stop-color:#2BA15D"/>
			<stop  offset="0.5" style="stop-color:#27793D"/>
			<stop  offset="0.9" style="stop-color:#0C592E"/>
			<stop  offset="1" style="stop-color:#3A7B3C"/>
		</radialGradient>
		<path id="XMLID_3877_" class="st65" d="M153.3,187.7c0.1,0,0.2,0.1,0.3,0.2c0.1,0.1,0.2,0.2,0.2,0.3c0,0.1,0.1,0.2,0.1,0.3
			s0,0.2,0,0.3c-0.1,0.2-0.1,0.3-0.3,0.4c-0.1,0.1-0.3,0.1-0.4,0.2l0,0c0.1,0,0.1,0.1,0.2,0.2c0,0.1,0.1,0.1,0.1,0.2
			c0,0.1,0,0.1,0,0.2c0,0.1,0,0.2,0,0.2c0,0,0,0.1,0,0.2c0,0.1,0,0.1-0.1,0.2c0,0.1,0,0.1,0,0.2c0,0.1,0,0.1,0,0.2l-0.6-0.2
			c0-0.1,0-0.2,0-0.3s0.1-0.2,0.1-0.4c0-0.2,0-0.3,0-0.4c0-0.1-0.1-0.2-0.3-0.2l-0.6-0.2l-0.4,1.1l-0.6-0.2l1-2.8L153.3,187.7z
			 M152.6,188.8c0.1,0.1,0.3,0.1,0.3,0c0.1,0,0.2-0.1,0.2-0.3c0-0.1,0-0.2,0-0.3c0-0.1-0.1-0.2-0.3-0.2l-0.7-0.2l-0.3,0.8
			L152.6,188.8z"/>
		<radialGradient id="XMLID_63_" cx="143.4135" cy="192.1088" r="28.5803" gradientUnits="userSpaceOnUse">
			<stop  offset="0" style="stop-color:#2BA15D"/>
			<stop  offset="0.5" style="stop-color:#27793D"/>
			<stop  offset="0.9" style="stop-color:#0C592E"/>
			<stop  offset="1" style="stop-color:#3A7B3C"/>
		</radialGradient>
		<path id="XMLID_3874_" class="st66" d="M154.1,188.9c0.1-0.2,0.3-0.3,0.4-0.4c0.2-0.1,0.3-0.1,0.5-0.1c0.2,0,0.4,0,0.6,0.1
			c0.2,0.1,0.4,0.2,0.5,0.4c0.1,0.1,0.2,0.3,0.3,0.5c0.1,0.2,0.1,0.4,0.1,0.6c0,0.2,0,0.4-0.1,0.6c-0.1,0.2-0.2,0.4-0.3,0.5
			c-0.1,0.2-0.3,0.3-0.4,0.4c-0.2,0.1-0.3,0.1-0.5,0.1c-0.2,0-0.4,0-0.6-0.1c-0.2-0.1-0.4-0.2-0.5-0.4c-0.1-0.1-0.2-0.3-0.3-0.5
			c-0.1-0.2-0.1-0.4-0.1-0.6c0-0.2,0-0.4,0.1-0.6C153.9,189.2,154,189,154.1,188.9z M154.3,190.1c0,0.1,0,0.2,0,0.4
			c0,0.1,0.1,0.2,0.2,0.3c0.1,0.1,0.2,0.2,0.3,0.2c0.1,0.1,0.3,0.1,0.4,0.1c0.1,0,0.2-0.1,0.3-0.1s0.2-0.1,0.2-0.2
			c0.1-0.1,0.1-0.2,0.2-0.3c0-0.1,0.1-0.2,0.1-0.4c0-0.1,0-0.2,0-0.4c0-0.1-0.1-0.2-0.2-0.3c-0.1-0.1-0.2-0.2-0.3-0.2
			c-0.1-0.1-0.3-0.1-0.4-0.1c-0.1,0-0.2,0.1-0.3,0.1c-0.1,0.1-0.2,0.2-0.2,0.3c-0.1,0.1-0.1,0.2-0.2,0.3
			C154.4,189.8,154.3,189.9,154.3,190.1z"/>
		<radialGradient id="XMLID_64_" cx="143.413" cy="192.1088" r="28.5811" gradientUnits="userSpaceOnUse">
			<stop  offset="0" style="stop-color:#2BA15D"/>
			<stop  offset="0.5" style="stop-color:#27793D"/>
			<stop  offset="0.9" style="stop-color:#0C592E"/>
			<stop  offset="1" style="stop-color:#3A7B3C"/>
		</radialGradient>
		<path id="XMLID_3872_" class="st67" d="M157.9,192.9c-0.1,0-0.3,0-0.4-0.1c-0.2-0.1-0.4-0.2-0.5-0.4c-0.1-0.2-0.2-0.3-0.3-0.5
			c-0.1-0.2-0.1-0.4-0.1-0.6c0-0.2,0-0.4,0.1-0.6c0.1-0.2,0.2-0.4,0.3-0.5c0.1-0.2,0.3-0.3,0.4-0.3c0.2-0.1,0.3-0.1,0.5-0.1
			c0.2,0,0.4,0.1,0.6,0.2c0.1,0.1,0.3,0.2,0.4,0.3c0.1,0.1,0.2,0.2,0.3,0.4c0.1,0.1,0.1,0.3,0.1,0.4c0,0.2,0,0.3,0,0.5l-0.6-0.3
			c0-0.2,0-0.3-0.1-0.5c-0.1-0.1-0.2-0.2-0.3-0.3c-0.1-0.1-0.3-0.1-0.4-0.1c-0.1,0-0.2,0-0.3,0.1s-0.2,0.1-0.2,0.2
			c-0.1,0.1-0.1,0.2-0.2,0.3c0,0.1-0.1,0.2-0.1,0.4c0,0.1,0,0.2,0,0.4c0,0.1,0.1,0.2,0.2,0.3c0.1,0.1,0.2,0.2,0.3,0.2
			c0.2,0.1,0.4,0.1,0.5,0.1c0.1-0.1,0.3-0.2,0.3-0.4l-0.6-0.3l0.2-0.5l1.1,0.6l-0.5,1.5l-0.4-0.2l0.1-0.3
			C158.2,192.8,158,192.9,157.9,192.9z"/>
		<radialGradient id="XMLID_65_" cx="143.4132" cy="192.1088" r="28.5808" gradientUnits="userSpaceOnUse">
			<stop  offset="0" style="stop-color:#2BA15D"/>
			<stop  offset="0.5" style="stop-color:#27793D"/>
			<stop  offset="0.9" style="stop-color:#0C592E"/>
			<stop  offset="1" style="stop-color:#3A7B3C"/>
		</radialGradient>
		<path id="XMLID_3869_" class="st68" d="M161.3,191.4c0.1,0.1,0.2,0.1,0.3,0.2c0.1,0.1,0.1,0.2,0.2,0.3c0,0.1,0.1,0.2,0.1,0.3
			c0,0.1,0,0.2-0.1,0.3c-0.1,0.2-0.1,0.3-0.2,0.4c-0.1,0.1-0.2,0.1-0.4,0.1l0,0c0.1,0.1,0.1,0.1,0.1,0.2c0,0.1,0.1,0.1,0.1,0.2
			c0,0.1,0,0.2,0,0.2c0,0.1,0,0.2,0,0.2c0,0,0,0.1,0,0.2c0,0.1,0,0.1-0.1,0.2c0,0.1,0,0.1,0,0.2c0,0.1,0,0.1,0,0.2l-0.6-0.3
			c0-0.1,0-0.2,0.1-0.4c0-0.1,0.1-0.3,0.1-0.4c0-0.2,0-0.3,0-0.4c0-0.1-0.1-0.2-0.3-0.3l-0.6-0.3l-0.4,1.1l-0.6-0.3l1-2.8
			L161.3,191.4z M160.7,192.5c0.1,0.1,0.2,0.1,0.3,0.1c0.1,0,0.2-0.1,0.2-0.3c0-0.1,0-0.3,0-0.4c0-0.1-0.1-0.2-0.3-0.3l-0.6-0.4
			l-0.3,0.8L160.7,192.5z"/>
		<radialGradient id="XMLID_66_" cx="143.4141" cy="192.1087" r="28.5795" gradientUnits="userSpaceOnUse">
			<stop  offset="0" style="stop-color:#2BA15D"/>
			<stop  offset="0.5" style="stop-color:#27793D"/>
			<stop  offset="0.9" style="stop-color:#0C592E"/>
			<stop  offset="1" style="stop-color:#3A7B3C"/>
		</radialGradient>
		<path id="XMLID_3867_" class="st69" d="M164.2,193.2l-0.2,0.5l-1.3-0.9l-0.2,0.6l1.2,0.8l-0.2,0.5l-1.2-0.8l-0.2,0.7l1.3,0.9
			l-0.2,0.5l-1.9-1.2l1-2.8L164.2,193.2z"/>
		<radialGradient id="XMLID_67_" cx="143.4137" cy="192.1089" r="28.5802" gradientUnits="userSpaceOnUse">
			<stop  offset="0" style="stop-color:#2BA15D"/>
			<stop  offset="0.5" style="stop-color:#27793D"/>
			<stop  offset="0.9" style="stop-color:#0C592E"/>
			<stop  offset="1" style="stop-color:#3A7B3C"/>
		</radialGradient>
		<path id="XMLID_3865_" class="st70" d="M164.1,195.8c0,0.1,0,0.2,0.1,0.2s0.1,0.1,0.1,0.2c0.1,0.1,0.1,0.1,0.2,0.2
			c0,0,0.1,0.1,0.2,0.1c0.1,0,0.1,0.1,0.2,0.1c0.1,0,0.1,0,0.2,0c0,0,0.1-0.1,0.1-0.1c0-0.1,0-0.2,0-0.2c0-0.1-0.1-0.2-0.1-0.2
			c-0.1-0.1-0.1-0.2-0.2-0.3c-0.1-0.1-0.2-0.2-0.2-0.3c-0.1-0.1-0.2-0.2-0.2-0.3c-0.1-0.1-0.1-0.2-0.2-0.3c0-0.1-0.1-0.2-0.1-0.3
			c0-0.1,0-0.2,0.1-0.4c0-0.1,0.1-0.3,0.2-0.3c0.1-0.1,0.2-0.1,0.3-0.1c0.1,0,0.2,0,0.3,0.1c0.1,0,0.2,0.1,0.3,0.2
			c0.1,0.1,0.2,0.2,0.3,0.3c0.1,0.1,0.2,0.3,0.2,0.4c0.1,0.1,0.1,0.3,0.1,0.4c0,0.2,0,0.3-0.1,0.5l-0.5-0.4c0-0.1,0-0.2,0-0.2
			c0-0.1,0-0.1-0.1-0.2c0-0.1-0.1-0.1-0.1-0.2c0-0.1-0.1-0.1-0.2-0.2c0,0-0.1-0.1-0.1-0.1c0,0-0.1,0-0.1,0c0,0-0.1,0-0.1,0
			c0,0-0.1,0.1-0.1,0.1c0,0.1,0,0.1,0,0.2c0,0,0,0.1,0.1,0.2c0,0.1,0.1,0.2,0.2,0.3c0.1,0.1,0.2,0.2,0.3,0.4c0,0,0.1,0.1,0.2,0.2
			c0.1,0.1,0.1,0.2,0.2,0.3c0.1,0.1,0.1,0.3,0.1,0.4c0,0.1,0,0.3,0,0.5c0,0.1-0.1,0.2-0.2,0.3c-0.1,0.1-0.2,0.1-0.3,0.1
			c-0.1,0-0.2,0-0.4,0c-0.1,0-0.3-0.1-0.4-0.3c-0.1-0.1-0.3-0.2-0.4-0.3s-0.2-0.3-0.3-0.4c-0.1-0.2-0.1-0.3-0.1-0.5
			c0-0.2,0-0.3,0.1-0.5l0.5,0.4C164.1,195.6,164.1,195.7,164.1,195.8z"/>
		<radialGradient id="XMLID_68_" cx="143.4131" cy="192.1087" r="28.5809" gradientUnits="userSpaceOnUse">
			<stop  offset="0" style="stop-color:#2BA15D"/>
			<stop  offset="0.5" style="stop-color:#27793D"/>
			<stop  offset="0.9" style="stop-color:#0C592E"/>
			<stop  offset="1" style="stop-color:#3A7B3C"/>
		</radialGradient>
		<path id="XMLID_3863_" class="st71" d="M166.2,197.5c0,0.1,0,0.2,0,0.3c0,0.1,0.1,0.2,0.1,0.2c0.1,0.1,0.1,0.1,0.2,0.2
			c0,0,0.1,0.1,0.1,0.1c0.1,0,0.1,0.1,0.2,0.1c0.1,0,0.1,0,0.1,0c0,0,0.1-0.1,0.1-0.1c0-0.1,0-0.2,0-0.2c0-0.1-0.1-0.2-0.1-0.3
			c0-0.1-0.1-0.2-0.2-0.3c-0.1-0.1-0.1-0.2-0.2-0.3c-0.1-0.1-0.1-0.2-0.2-0.3c-0.1-0.1-0.1-0.2-0.2-0.3c0-0.1-0.1-0.2-0.1-0.4
			c0-0.1,0-0.3,0.1-0.4c0-0.1,0.1-0.2,0.2-0.3c0.1-0.1,0.2-0.1,0.3-0.1s0.2,0,0.3,0.1c0.1,0.1,0.2,0.1,0.3,0.2
			c0.1,0.1,0.2,0.2,0.3,0.4c0.1,0.1,0.2,0.3,0.2,0.4c0.1,0.2,0.1,0.3,0.1,0.5c0,0.2,0,0.3-0.1,0.5l-0.5-0.4c0-0.1,0-0.2,0-0.2
			s0-0.1,0-0.2c0-0.1-0.1-0.1-0.1-0.2c0-0.1-0.1-0.1-0.2-0.2c0,0-0.1-0.1-0.1-0.1c0,0-0.1,0-0.1,0c0,0-0.1,0-0.1,0
			c0,0-0.1,0.1-0.1,0.1c0,0.1,0,0.1,0,0.2c0,0,0,0.1,0.1,0.2c0,0.1,0.1,0.2,0.2,0.3c0.1,0.1,0.2,0.2,0.3,0.4c0,0,0.1,0.1,0.1,0.2
			c0.1,0.1,0.1,0.2,0.2,0.3c0,0.1,0.1,0.3,0.1,0.4c0,0.1,0,0.3-0.1,0.5c0,0.1-0.1,0.2-0.2,0.3c-0.1,0.1-0.2,0.1-0.3,0.1
			c-0.1,0-0.2,0-0.3-0.1c-0.1-0.1-0.3-0.2-0.4-0.3c-0.1-0.1-0.2-0.2-0.3-0.4c-0.1-0.1-0.2-0.3-0.2-0.5c-0.1-0.2-0.1-0.3-0.1-0.5
			c0-0.2,0-0.3,0.1-0.5l0.5,0.4C166.2,197.3,166.2,197.4,166.2,197.5z"/>
		<radialGradient id="XMLID_69_" cx="143.4136" cy="192.1088" r="28.5804" gradientUnits="userSpaceOnUse">
			<stop  offset="0" style="stop-color:#2BA15D"/>
			<stop  offset="0.5" style="stop-color:#27793D"/>
			<stop  offset="0.9" style="stop-color:#0C592E"/>
			<stop  offset="1" style="stop-color:#3A7B3C"/>
		</radialGradient>
		<path id="XMLID_3860_" class="st72" d="M168.2,197.7c0.1-0.1,0.2-0.2,0.3-0.2c0.1,0,0.2,0,0.4,0.1c0.1,0.1,0.3,0.2,0.4,0.4
			c0.1,0.2,0.2,0.4,0.3,0.6c0.1,0.2,0.1,0.5,0.2,0.7c0,0.2,0,0.5,0,0.7c0,0.2-0.1,0.5-0.1,0.7c-0.1,0.2-0.2,0.4-0.3,0.5
			s-0.2,0.2-0.3,0.2c-0.1,0-0.2,0-0.4-0.1c-0.1-0.1-0.3-0.2-0.4-0.4c-0.1-0.2-0.2-0.4-0.3-0.6c-0.1-0.2-0.1-0.5-0.2-0.7
			c0-0.2,0-0.5,0-0.7c0-0.2,0.1-0.5,0.1-0.7C168,198,168.1,197.8,168.2,197.7z M168.2,199.1c0,0.1,0,0.3,0,0.4c0,0.1,0,0.3,0.1,0.4
			c0,0.1,0.1,0.3,0.2,0.4c0.1,0.1,0.2,0.2,0.2,0.2c0.1,0,0.2,0,0.2,0c0.1,0,0.1-0.1,0.2-0.2c0.1-0.1,0.1-0.2,0.1-0.3
			c0-0.1,0.1-0.3,0.1-0.4c0-0.1,0-0.3,0-0.4c0-0.1,0-0.3-0.1-0.4c0-0.1-0.1-0.3-0.2-0.4c-0.1-0.1-0.2-0.2-0.2-0.2
			c-0.1,0-0.2,0-0.2,0c-0.1,0-0.1,0.1-0.2,0.2c-0.1,0.1-0.1,0.2-0.1,0.3C168.3,198.8,168.3,199,168.2,199.1z"/>
	</g>
	<g id="XMLID_3831_">
		<polygon id="XMLID_3858_" class="st73" points="147.8,215 147.6,215.3 147.2,215.3 147.5,215.5 147.4,215.8 147.8,215.7 
			148.1,215.8 148,215.6 148.3,215.3 147.9,215.3 		"/>
		<polygon id="XMLID_3857_" class="st73" points="154.8,187.1 155,186.1 154.1,185.3 155.2,185.3 155.6,184.3 156.1,185.4 
			157.2,185.5 156.4,186.2 156.7,187.2 155.7,186.6 		"/>
		<polygon id="XMLID_3856_" class="st73" points="129.3,191.8 129,192.7 128.3,192.8 128.8,193.3 128.6,194.1 129.2,193.7 
			129.7,194.1 129.6,193.3 130.2,192.7 129.5,192.6 		"/>
		<polygon id="XMLID_3855_" class="st73" points="128.9,203.4 128.8,204 128.2,204 128.7,204.5 128.6,205.2 129,204.9 129.6,205.3 
			129.3,204.6 129.7,204.2 129.2,204.1 		"/>
		<path id="XMLID_3854_" class="st73" d="M130.7,201.4c0,0-0.2,0.8-0.2,0.8l-0.7,0l0.6,0.6l-0.1,0.8l0.6-0.4l0.7,0.5l-0.2-0.9
			l0.6-0.5l-0.8-0.1L130.7,201.4z"/>
		<polygon id="XMLID_3853_" class="st73" points="132.4,200.6 132.3,201.1 131.9,201.1 132.2,201.4 132.1,201.9 132.5,201.6 
			132.8,201.9 132.7,201.4 133.1,201.1 132.6,201.1 		"/>
		<polygon id="XMLID_3852_" class="st73" points="133.9,208.2 134.4,207.9 134.9,208.3 134.7,207.7 135.1,207.3 134.6,207.2 
			134.3,206.6 134.1,207.2 133.6,207.2 134,207.6 		"/>
		<polygon id="XMLID_3851_" class="st73" points="134.9,204.1 134.7,204.8 134,204.8 134.5,205.3 134.4,206 135,205.7 135.6,206.2 
			135.4,205.4 135.9,205 135.2,204.9 		"/>
		<polygon id="XMLID_3850_" class="st73" points="137.6,208.9 137.3,209.6 136.5,209.6 137.2,210.2 137.1,211 137.7,210.6 
			138.5,211.1 138.2,210.3 138.9,209.8 138,209.7 		"/>
		<polygon id="XMLID_3849_" class="st73" points="138,196.7 137.7,197.5 136.9,197.6 137.5,198.1 137.3,198.9 138,198.5 
			138.6,198.9 138.4,198.1 139,197.6 138.2,197.5 		"/>
		<polygon id="XMLID_3848_" class="st73" points="153.5,195.2 153.3,195.9 152.6,195.9 153.1,196.4 152.9,197.1 153.5,196.7 
			154.1,197.1 154,196.4 154.5,195.9 153.8,195.9 		"/>
		<polygon id="XMLID_3847_" class="st73" points="144.4,202.9 144.1,203.5 143.4,203.6 143.9,204 143.8,204.7 144.4,204.3 
			145,204.7 144.8,204.1 145.3,203.6 144.6,203.6 		"/>
		<polygon id="XMLID_3846_" class="st73" points="146.2,204.5 146,205 145.5,205 145.9,205.3 145.8,205.8 146.2,205.6 146.7,205.9 
			146.5,205.3 147,205 146.4,205 		"/>
		<polygon id="XMLID_3845_" class="st73" points="150.3,202.5 149.9,203.3 149.1,203.3 149.7,203.8 149.5,204.6 150.2,204.2 
			150.9,204.6 150.7,203.8 151.4,203.3 150.6,203.3 		"/>
		<polygon id="XMLID_3844_" class="st73" points="147.9,200.3 147.6,201.1 146.8,201.1 147.4,201.7 147.2,202.5 147.9,202 
			148.6,202.5 148.4,201.7 149.1,201.1 148.2,201.1 		"/>
		<polygon id="XMLID_3843_" class="st73" points="147.7,207.3 147.3,208.2 146.4,208.2 147.1,208.8 146.9,209.7 147.7,209.2 
			148.5,209.7 148.3,208.8 149,208.3 148.1,208.2 		"/>
		<polygon id="XMLID_3842_" class="st73" points="152.8,210 152.5,210.6 151.8,210.6 152.3,211 152.1,211.6 152.7,211.3 
			153.3,211.6 153.1,211 153.7,210.6 153,210.6 		"/>
		<polygon id="XMLID_3841_" class="st73" points="154.6,212.4 154.2,213.1 153.5,213.1 154,213.5 153.8,214.2 154.5,213.8 
			155.1,214.1 154.9,213.5 155.5,213 154.8,213 		"/>
		<polygon id="XMLID_3840_" class="st73" points="155.9,211 156.5,211 156.8,210.4 157,210.9 157.7,210.9 157.1,211.3 157.2,211.9 
			156.7,211.6 156.2,212 156.4,211.4 		"/>
		<polygon id="XMLID_3839_" class="st73" points="159.1,213.8 158.8,214.3 158.2,214.4 158.6,214.6 158.4,215.1 158.9,214.8 
			159.3,215 159.3,214.5 159.8,214.2 159.2,214.2 		"/>
		<polygon id="XMLID_3838_" class="st73" points="159.4,211.6 159,212.2 158.3,212.3 158.8,212.7 158.6,213.3 159.2,212.9 
			159.7,213.2 159.7,212.6 160.2,212.1 159.6,212.2 		"/>
		<polygon id="XMLID_3837_" class="st73" points="159.5,209.7 159.3,210.3 158.6,210.4 159.1,210.7 158.8,211.3 159.4,210.9 
			159.9,211.2 159.8,210.6 160.3,210.2 159.7,210.2 		"/>
		<polygon id="XMLID_3836_" class="st73" points="161.6,209.5 161.4,210.1 160.8,210.2 161.2,210.5 161,211.1 161.5,210.7 
			161.9,211 161.9,210.4 162.4,210 161.8,210 		"/>
		<polygon id="XMLID_3835_" class="st73" points="163.7,208.3 163.4,208.9 162.7,209.1 163.1,209.4 162.9,210.1 163.5,209.7 
			163.9,210 163.9,209.3 164.4,208.8 163.8,208.9 		"/>
		<polygon id="XMLID_3834_" class="st73" points="164.8,206.5 164.5,207.1 163.8,207.3 164.3,207.7 164,208.3 164.6,207.9 
			165.1,208.2 165,207.6 165.6,207.1 164.9,207.1 		"/>
		<polygon id="XMLID_3833_" class="st73" points="164.2,204.1 163.9,205 163.1,205.1 163.6,205.6 163.4,206.5 164.1,206 
			164.7,206.3 164.6,205.5 165.2,204.9 164.5,204.9 		"/>
		<polygon id="XMLID_3832_" class="st73" points="166.9,204.4 166.7,205 166.2,205.1 166.5,205.5 166.3,206.1 166.8,205.7 
			167.2,206 167.1,205.4 167.5,205 167.1,205 		"/>
	</g>
	<g id="XMLID_3801_">
		<radialGradient id="XMLID_70_" cx="144.2297" cy="193.2465" r="26.9365" gradientUnits="userSpaceOnUse">
			<stop  offset="0.2" style="stop-color:#FFFFFF"/>
			<stop  offset="0.5" style="stop-color:#D1D3D4"/>
			<stop  offset="0.85" style="stop-color:#939598"/>
			<stop  offset="1" style="stop-color:#FFFFFF"/>
		</radialGradient>
		<polygon id="XMLID_3830_" class="st74" points="147.8,215.2 147.6,215.5 147.2,215.6 147.5,215.8 147.4,216.1 147.8,215.9 
			148.1,216.1 148,215.8 148.3,215.6 147.9,215.5 		"/>
		<radialGradient id="XMLID_71_" cx="144.2298" cy="193.2437" r="26.9395" gradientUnits="userSpaceOnUse">
			<stop  offset="0.2" style="stop-color:#FFFFFF"/>
			<stop  offset="0.5" style="stop-color:#D1D3D4"/>
			<stop  offset="0.85" style="stop-color:#939598"/>
			<stop  offset="1" style="stop-color:#FFFFFF"/>
		</radialGradient>
		<polygon id="XMLID_3829_" class="st75" points="154.8,187 155.1,185.9 154.2,185.2 155.3,185.2 155.7,184.2 156.2,185.2 
			157.3,185.4 156.5,186 156.8,187.1 155.8,186.5 		"/>
		<radialGradient id="XMLID_72_" cx="144.2301" cy="193.2438" r="26.9403" gradientUnits="userSpaceOnUse">
			<stop  offset="0.2" style="stop-color:#FFFFFF"/>
			<stop  offset="0.5" style="stop-color:#D1D3D4"/>
			<stop  offset="0.85" style="stop-color:#939598"/>
			<stop  offset="1" style="stop-color:#FFFFFF"/>
		</radialGradient>
		<polygon id="XMLID_3828_" class="st76" points="129,191.8 128.7,192.6 128.1,192.7 128.5,193.2 128.3,194.1 128.9,193.6 
			129.5,194.1 129.4,193.2 130,192.6 129.2,192.6 		"/>
		<radialGradient id="XMLID_73_" cx="144.2302" cy="193.2438" r="26.9401" gradientUnits="userSpaceOnUse">
			<stop  offset="0.2" style="stop-color:#FFFFFF"/>
			<stop  offset="0.5" style="stop-color:#D1D3D4"/>
			<stop  offset="0.85" style="stop-color:#939598"/>
			<stop  offset="1" style="stop-color:#FFFFFF"/>
		</radialGradient>
		<polygon id="XMLID_3827_" class="st77" points="128.7,203.5 128.5,204.1 128,204.1 128.4,204.6 128.4,205.3 128.8,205 
			129.3,205.4 129.1,204.7 129.5,204.3 128.9,204.2 		"/>
		<radialGradient id="XMLID_74_" cx="144.2305" cy="193.2436" r="26.9408" gradientUnits="userSpaceOnUse">
			<stop  offset="0.2" style="stop-color:#FFFFFF"/>
			<stop  offset="0.5" style="stop-color:#D1D3D4"/>
			<stop  offset="0.85" style="stop-color:#939598"/>
			<stop  offset="1" style="stop-color:#FFFFFF"/>
		</radialGradient>
		<path id="XMLID_3826_" class="st78" d="M130.4,201.5c0,0-0.2,0.8-0.2,0.8l-0.7,0l0.6,0.6l-0.1,0.8l0.6-0.4l0.7,0.5L131,203
			l0.6-0.5l-0.8-0.1L130.4,201.5z"/>
		<radialGradient id="XMLID_75_" cx="144.231" cy="193.2444" r="26.9407" gradientUnits="userSpaceOnUse">
			<stop  offset="0.2" style="stop-color:#FFFFFF"/>
			<stop  offset="0.5" style="stop-color:#D1D3D4"/>
			<stop  offset="0.85" style="stop-color:#939598"/>
			<stop  offset="1" style="stop-color:#FFFFFF"/>
		</radialGradient>
		<polygon id="XMLID_3825_" class="st79" points="132.2,200.6 132.1,201.1 131.7,201.1 132,201.5 131.9,201.9 132.3,201.7 
			132.7,202 132.5,201.5 132.9,201.2 132.4,201.1 		"/>
		<radialGradient id="XMLID_76_" cx="144.2299" cy="193.2444" r="26.9388" gradientUnits="userSpaceOnUse">
			<stop  offset="0.2" style="stop-color:#FFFFFF"/>
			<stop  offset="0.5" style="stop-color:#D1D3D4"/>
			<stop  offset="0.85" style="stop-color:#939598"/>
			<stop  offset="1" style="stop-color:#FFFFFF"/>
		</radialGradient>
		<polygon id="XMLID_3824_" class="st80" points="133.8,208.3 134.2,208.1 134.8,208.4 134.6,207.8 135,207.5 134.4,207.4 
			134.1,206.8 133.9,207.3 133.4,207.3 133.8,207.7 		"/>
		<radialGradient id="XMLID_77_" cx="144.23" cy="193.2436" r="26.9402" gradientUnits="userSpaceOnUse">
			<stop  offset="0.2" style="stop-color:#FFFFFF"/>
			<stop  offset="0.5" style="stop-color:#D1D3D4"/>
			<stop  offset="0.85" style="stop-color:#939598"/>
			<stop  offset="1" style="stop-color:#FFFFFF"/>
		</radialGradient>
		<polygon id="XMLID_3823_" class="st81" points="134.7,204.2 134.5,204.9 133.8,204.9 134.4,205.4 134.3,206.2 134.8,205.8 
			135.5,206.3 135.2,205.5 135.8,205.1 135.1,205 		"/>
		<radialGradient id="XMLID_78_" cx="144.2299" cy="193.2428" r="26.9411" gradientUnits="userSpaceOnUse">
			<stop  offset="0.2" style="stop-color:#FFFFFF"/>
			<stop  offset="0.5" style="stop-color:#D1D3D4"/>
			<stop  offset="0.85" style="stop-color:#939598"/>
			<stop  offset="1" style="stop-color:#FFFFFF"/>
		</radialGradient>
		<polygon id="XMLID_3822_" class="st82" points="137.5,209 137.2,209.8 136.4,209.7 137.1,210.4 136.9,211.1 137.6,210.8 
			138.4,211.3 138.1,210.5 138.8,210 137.9,209.8 		"/>
		<radialGradient id="XMLID_79_" cx="144.2298" cy="193.2437" r="26.94" gradientUnits="userSpaceOnUse">
			<stop  offset="0.2" style="stop-color:#FFFFFF"/>
			<stop  offset="0.5" style="stop-color:#D1D3D4"/>
			<stop  offset="0.85" style="stop-color:#939598"/>
			<stop  offset="1" style="stop-color:#FFFFFF"/>
		</radialGradient>
		<polygon id="XMLID_3821_" class="st83" points="137.8,196.7 137.5,197.5 136.8,197.6 137.3,198.1 137.2,198.9 137.8,198.5 
			138.5,198.9 138.3,198.1 138.9,197.6 138.1,197.5 		"/>
		<radialGradient id="XMLID_80_" cx="144.2293" cy="193.2439" r="26.9408" gradientUnits="userSpaceOnUse">
			<stop  offset="0.2" style="stop-color:#FFFFFF"/>
			<stop  offset="0.5" style="stop-color:#D1D3D4"/>
			<stop  offset="0.85" style="stop-color:#939598"/>
			<stop  offset="1" style="stop-color:#FFFFFF"/>
		</radialGradient>
		<polygon id="XMLID_3820_" class="st84" points="153.6,195.2 153.3,195.9 152.6,195.9 153.2,196.4 153,197.1 153.6,196.7 
			154.2,197.1 154,196.4 154.6,195.9 153.9,195.9 		"/>
		<radialGradient id="XMLID_81_" cx="144.2297" cy="193.2441" r="26.939" gradientUnits="userSpaceOnUse">
			<stop  offset="0.2" style="stop-color:#FFFFFF"/>
			<stop  offset="0.5" style="stop-color:#D1D3D4"/>
			<stop  offset="0.85" style="stop-color:#939598"/>
			<stop  offset="1" style="stop-color:#FFFFFF"/>
		</radialGradient>
		<polygon id="XMLID_3819_" class="st85" points="144.3,203 144.1,203.6 143.4,203.7 143.9,204.1 143.7,204.8 144.3,204.4 
			144.9,204.8 144.8,204.1 145.3,203.7 144.6,203.6 		"/>
		<radialGradient id="XMLID_82_" cx="144.2297" cy="193.2435" r="26.9405" gradientUnits="userSpaceOnUse">
			<stop  offset="0.2" style="stop-color:#FFFFFF"/>
			<stop  offset="0.5" style="stop-color:#D1D3D4"/>
			<stop  offset="0.85" style="stop-color:#939598"/>
			<stop  offset="1" style="stop-color:#FFFFFF"/>
		</radialGradient>
		<polygon id="XMLID_3818_" class="st86" points="146.2,204.6 146,205.1 145.5,205.1 145.9,205.4 145.7,205.9 146.2,205.7 
			146.7,206 146.5,205.4 146.9,205.1 146.4,205.1 		"/>
		<radialGradient id="XMLID_83_" cx="144.2296" cy="193.244" r="26.9396" gradientUnits="userSpaceOnUse">
			<stop  offset="0.2" style="stop-color:#FFFFFF"/>
			<stop  offset="0.5" style="stop-color:#D1D3D4"/>
			<stop  offset="0.85" style="stop-color:#939598"/>
			<stop  offset="1" style="stop-color:#FFFFFF"/>
		</radialGradient>
		<polygon id="XMLID_3817_" class="st87" points="150.3,202.5 149.9,203.3 149.1,203.4 149.7,203.9 149.5,204.7 150.3,204.3 
			151,204.7 150.8,203.9 151.4,203.4 150.6,203.3 		"/>
		<radialGradient id="XMLID_84_" cx="144.2296" cy="193.2437" r="26.9403" gradientUnits="userSpaceOnUse">
			<stop  offset="0.2" style="stop-color:#FFFFFF"/>
			<stop  offset="0.5" style="stop-color:#D1D3D4"/>
			<stop  offset="0.85" style="stop-color:#939598"/>
			<stop  offset="1" style="stop-color:#FFFFFF"/>
		</radialGradient>
		<polygon id="XMLID_3816_" class="st88" points="147.9,200.3 147.6,201.1 146.7,201.2 147.4,201.7 147.2,202.5 147.9,202.1 
			148.6,202.6 148.4,201.7 149.1,201.2 148.2,201.1 		"/>
		<radialGradient id="XMLID_85_" cx="144.2298" cy="193.2437" r="26.9397" gradientUnits="userSpaceOnUse">
			<stop  offset="0.2" style="stop-color:#FFFFFF"/>
			<stop  offset="0.5" style="stop-color:#D1D3D4"/>
			<stop  offset="0.85" style="stop-color:#939598"/>
			<stop  offset="1" style="stop-color:#FFFFFF"/>
		</radialGradient>
		<polygon id="XMLID_3814_" class="st89" points="147.7,207.4 147.3,208.3 146.4,208.4 147.1,209 146.9,209.8 147.7,209.4 
			148.5,209.8 148.3,209 149,208.4 148.1,208.3 		"/>
		<radialGradient id="XMLID_86_" cx="144.2301" cy="193.2441" r="26.9392" gradientUnits="userSpaceOnUse">
			<stop  offset="0.2" style="stop-color:#FFFFFF"/>
			<stop  offset="0.5" style="stop-color:#D1D3D4"/>
			<stop  offset="0.85" style="stop-color:#939598"/>
			<stop  offset="1" style="stop-color:#FFFFFF"/>
		</radialGradient>
		<polygon id="XMLID_3813_" class="st90" points="152.8,210.1 152.5,210.8 151.9,210.8 152.4,211.2 152.2,211.8 152.8,211.5 
			153.3,211.8 153.2,211.2 153.7,210.8 153.1,210.7 		"/>
		<radialGradient id="XMLID_87_" cx="144.2294" cy="193.2448" r="26.9388" gradientUnits="userSpaceOnUse">
			<stop  offset="0.2" style="stop-color:#FFFFFF"/>
			<stop  offset="0.5" style="stop-color:#D1D3D4"/>
			<stop  offset="0.85" style="stop-color:#939598"/>
			<stop  offset="1" style="stop-color:#FFFFFF"/>
		</radialGradient>
		<polygon id="XMLID_3811_" class="st91" points="154.7,212.6 154.3,213.3 153.5,213.3 154.1,213.7 153.9,214.4 154.5,214 
			155.2,214.3 155,213.7 155.6,213.2 154.9,213.2 		"/>
		<radialGradient id="XMLID_88_" cx="144.231" cy="193.244" r="26.9386" gradientUnits="userSpaceOnUse">
			<stop  offset="0.2" style="stop-color:#FFFFFF"/>
			<stop  offset="0.5" style="stop-color:#D1D3D4"/>
			<stop  offset="0.85" style="stop-color:#939598"/>
			<stop  offset="1" style="stop-color:#FFFFFF"/>
		</radialGradient>
		<polygon id="XMLID_3810_" class="st92" points="156,211.2 156.6,211.1 156.9,210.5 157.1,211.1 157.8,211.1 157.2,211.5 
			157.3,212.1 156.8,211.8 156.3,212.1 156.5,211.6 		"/>
		<radialGradient id="XMLID_89_" cx="144.229" cy="193.2416" r="26.942" gradientUnits="userSpaceOnUse">
			<stop  offset="0.2" style="stop-color:#FFFFFF"/>
			<stop  offset="0.5" style="stop-color:#D1D3D4"/>
			<stop  offset="0.85" style="stop-color:#939598"/>
			<stop  offset="1" style="stop-color:#FFFFFF"/>
		</radialGradient>
		<polygon id="XMLID_3809_" class="st93" points="159.2,214 158.9,214.5 158.3,214.6 158.7,214.8 158.5,215.3 159,215 159.5,215.2 
			159.4,214.8 159.9,214.4 159.3,214.4 		"/>
		<radialGradient id="XMLID_90_" cx="144.2293" cy="193.2429" r="26.9408" gradientUnits="userSpaceOnUse">
			<stop  offset="0.2" style="stop-color:#FFFFFF"/>
			<stop  offset="0.5" style="stop-color:#D1D3D4"/>
			<stop  offset="0.85" style="stop-color:#939598"/>
			<stop  offset="1" style="stop-color:#FFFFFF"/>
		</radialGradient>
		<polygon id="XMLID_3808_" class="st94" points="159.5,211.8 159.2,212.4 158.4,212.5 158.9,212.9 158.7,213.5 159.3,213.1 
			159.9,213.4 159.8,212.8 160.4,212.3 159.7,212.3 		"/>
		<radialGradient id="XMLID_91_" cx="144.2304" cy="193.2449" r="26.9383" gradientUnits="userSpaceOnUse">
			<stop  offset="0.2" style="stop-color:#FFFFFF"/>
			<stop  offset="0.5" style="stop-color:#D1D3D4"/>
			<stop  offset="0.85" style="stop-color:#939598"/>
			<stop  offset="1" style="stop-color:#FFFFFF"/>
		</radialGradient>
		<polygon id="XMLID_3807_" class="st95" points="159.7,209.8 159.4,210.4 158.8,210.5 159.2,210.9 159,211.5 159.5,211.1 
			160,211.4 159.9,210.8 160.5,210.4 159.8,210.4 		"/>
		<radialGradient id="XMLID_92_" cx="144.2307" cy="193.2428" r="26.9396" gradientUnits="userSpaceOnUse">
			<stop  offset="0.2" style="stop-color:#FFFFFF"/>
			<stop  offset="0.5" style="stop-color:#D1D3D4"/>
			<stop  offset="0.85" style="stop-color:#939598"/>
			<stop  offset="1" style="stop-color:#FFFFFF"/>
		</radialGradient>
		<polygon id="XMLID_3806_" class="st96" points="161.8,209.7 161.5,210.2 160.9,210.3 161.3,210.7 161.1,211.2 161.6,210.9 
			162.1,211.1 162,210.6 162.5,210.2 162,210.2 		"/>
		<radialGradient id="XMLID_93_" cx="144.2296" cy="193.2446" r="26.9391" gradientUnits="userSpaceOnUse">
			<stop  offset="0.2" style="stop-color:#FFFFFF"/>
			<stop  offset="0.5" style="stop-color:#D1D3D4"/>
			<stop  offset="0.85" style="stop-color:#939598"/>
			<stop  offset="1" style="stop-color:#FFFFFF"/>
		</radialGradient>
		<polygon id="XMLID_3805_" class="st97" points="163.8,208.4 163.5,209.1 162.9,209.2 163.3,209.6 163,210.3 163.7,209.8 
			164.1,210.1 164.1,209.5 164.6,209 164,209 		"/>
		<radialGradient id="XMLID_94_" cx="144.2297" cy="193.2433" r="26.94" gradientUnits="userSpaceOnUse">
			<stop  offset="0.2" style="stop-color:#FFFFFF"/>
			<stop  offset="0.5" style="stop-color:#D1D3D4"/>
			<stop  offset="0.85" style="stop-color:#939598"/>
			<stop  offset="1" style="stop-color:#FFFFFF"/>
		</radialGradient>
		<polygon id="XMLID_3804_" class="st98" points="165,206.6 164.7,207.3 164,207.4 164.5,207.8 164.2,208.5 164.8,208 165.3,208.4 
			165.2,207.7 165.8,207.2 165.1,207.2 		"/>
		<radialGradient id="XMLID_95_" cx="144.2295" cy="193.2441" r="26.9398" gradientUnits="userSpaceOnUse">
			<stop  offset="0.2" style="stop-color:#FFFFFF"/>
			<stop  offset="0.5" style="stop-color:#D1D3D4"/>
			<stop  offset="0.85" style="stop-color:#939598"/>
			<stop  offset="1" style="stop-color:#FFFFFF"/>
		</radialGradient>
		<polygon id="XMLID_3803_" class="st99" points="164.4,204.2 164.1,205.1 163.3,205.2 163.8,205.7 163.5,206.6 164.3,206.1 
			164.9,206.5 164.8,205.6 165.4,205 164.6,205 		"/>
		<radialGradient id="XMLID_96_" cx="144.2311" cy="193.2444" r="26.9381" gradientUnits="userSpaceOnUse">
			<stop  offset="0.2" style="stop-color:#FFFFFF"/>
			<stop  offset="0.5" style="stop-color:#D1D3D4"/>
			<stop  offset="0.85" style="stop-color:#939598"/>
			<stop  offset="1" style="stop-color:#FFFFFF"/>
		</radialGradient>
		<polygon id="XMLID_3802_" class="st100" points="167.2,204.5 166.9,205.1 166.4,205.2 166.8,205.6 166.6,206.2 167,205.8 
			167.4,206.1 167.3,205.5 167.8,205.1 167.3,205.1 		"/>
	</g>
</g>
<image style="overflow:visible;" width="304" height="118" xlink:href="../../../../Downloads/logo-polis.png"  transform="matrix(0.4864 0 0 0.4864 76.9057 40.7986)">
</image>
</svg>
