<?xml version="1.0" encoding="utf-8"?>
<!-- Generator: Adobe Illustrator 19.2.0, SVG Export Plug-In . SVG Version: 6.00 Build 0)  -->
<svg version="1.1" id="Layer_1" xmlns="http://www.w3.org/2000/svg" xmlns:xlink="http://www.w3.org/1999/xlink" x="0px" y="0px"
	 viewBox="0 0 465.4 120.1" style="enable-background:new 0 0 465.4 120.1;" xml:space="preserve">
<style type="text/css">
	.st0{fill:#6C6C6C;}
	.st1{fill:#2B3087;}
	.st2{fill:#FFE500;}
	.st3{fill:#3C7B31;}
	.st4{fill:#64ABDD;}
	.st5{fill:#00973A;}
	.st6{fill:#79B729;}
	.st7{fill:#A0CEEB;}
	.st8{fill:#FFFFFF;}
</style>
<path class="st0" d="M44.7,33.3c-1.7-1.8-1.1-3.2,1.3-3.2l15.4,0.1c2.5,0,3.1,1.4,1.3,3.2l-6.4,7.3c-1.7,1.7-3.3,1.7-5-0.1
	L44.7,33.3"/>
<path class="st1" d="M50.8,111.4c-2.1-2.1-1.3-3.8,1.6-3.8h18.4c2.9,0,3.7,1.7,1.6,3.8l-8.2,7.2c-2.1,2.1-3.4,2.1-5.5,0L50.8,111.4"
	/>
<g>
	<path class="st2" d="M37.8,0.5c6.5,0,11.8,5.3,11.8,11.8c0,6.5-5.3,11.7-11.8,11.8c-6.5,0-11.7-5.3-11.8-11.8
		C26.1,5.7,31.4,0.5,37.8,0.5"/>
	<path class="st2" d="M3.2,97.4c-2.1,2.1-1.4,3.9,1.6,4.1H26V76.6L3.2,97.4"/>
</g>
<path class="st3" d="M26,104.8c0,2.9,1.7,3.7,3.8,1.6l5.1-4.9H26V104.8"/>
<path class="st4" d="M11.5,35.1C9.6,33.2,8,33.9,8,36.5v44.7c0,2.7,1.5,3.3,3.4,1.4l14.5-13.7V47.2L11.5,35.1z"/>
<path class="st3" d="M52.8,52l-23-20.8c-2.1-2.1-3.9-1.3-3.9,1.6v14.2l8.5,7c1.9,1.9,1.9,4.9,0,6.8l-8.5,8v7.8L52.8,52"/>
<path class="st5" d="M34.4,54.1l-8.5-7v21.7l8.5-8C36.2,59,36.2,56,34.4,54.1"/>
<path class="st6" d="M66,64L52.8,52L26,76.6v24.9h8.9L66,71.4C68.1,69.4,68.1,66,66,64"/>
<path class="st2" d="M66.1,77.6h13.4V32.8c-0.1-2.9-1.9-3.6-4-1.6L52.8,52L66,64c2.1,2.1,2.1,5.5,0,7.5l-31.2,30.1h39.8
	c2.8,0.1,4.8-1.8,4.9-4.5L64.7,80.9C62.9,79,63.6,77.6,66.1,77.6"/>
<path class="st7" d="M113.1,77.6H79.6v18.9c0,0.2,0,0.3,0,0.5l6.6,7.3c1.8,1.8,4.7,1.8,6.5,0l21.9-23.4
	C116.2,79,115.6,77.6,113.1,77.6"/>
<path class="st6" d="M79.6,77.6H66.1c-2.5,0-3.2,1.5-1.4,3.3L79.5,97c0-0.2,0-0.3,0-0.5L79.6,77.6"/>
<g>
	<path class="st8" d="M84.8,34.2V17.6H92c0.8,0,1.6,0.2,2.2,0.5c0.7,0.3,1.3,0.8,1.8,1.3c0.5,0.5,0.9,1.2,1.2,1.8
		c0.3,0.7,0.4,1.4,0.4,2.1c0,0.7-0.1,1.4-0.4,2.1c-0.3,0.7-0.6,1.3-1.1,1.8c-0.5,0.5-1,1-1.7,1.3c-0.7,0.3-1.4,0.5-2.2,0.5h-2.7v5.1
		H84.8z M89.4,25.1h2.4c0.3,0,0.5-0.1,0.8-0.4c0.2-0.3,0.4-0.7,0.4-1.4c0-0.7-0.1-1.1-0.4-1.4c-0.3-0.2-0.6-0.4-0.8-0.4h-2.3V25.1z"
		/>
	<path class="st8" d="M99,34.2V17.6h4.5v12.6h7.5v4H99z"/>
	<path class="st8" d="M116.5,17.6h4.1l5.7,16.5h-4.6l-1-3.2h-4.4l-1,3.2h-4.6L116.5,17.6z M120,27.9l-1.5-5.1l-1.5,5.1H120z"/>
	<path class="st8" d="M138.7,21.6H134v12.6h-4.5V21.6h-4.8v-4h14.1V21.6z"/>
	<path class="st8" d="M142.8,17.6h4.1l5.7,16.5H148l-1-3.2h-4.4l-1,3.2H137L142.8,17.6z M146.3,27.9l-1.5-5.1l-1.5,5.1H146.3z"/>
	<path class="st8" d="M153.6,34.2V17.6H165v4h-6.8v2.8h5.5V28h-5.5v6.2H153.6z"/>
	<path class="st8" d="M173.6,34.3c-1.3,0-2.4-0.2-3.4-0.7c-1-0.5-1.9-1.1-2.6-1.9c-0.7-0.8-1.3-1.7-1.7-2.7c-0.4-1-0.6-2.1-0.6-3.1
		c0-1.1,0.2-2.1,0.6-3.1c0.4-1,1-1.9,1.8-2.7c0.8-0.8,1.6-1.4,2.7-1.8c1-0.5,2.2-0.7,3.4-0.7c1.3,0,2.4,0.2,3.4,0.7s1.9,1.1,2.6,1.9
		c0.7,0.8,1.3,1.7,1.7,2.7c0.4,1,0.6,2,0.6,3.1c0,1.1-0.2,2.1-0.6,3.1c-0.4,1-1,1.9-1.7,2.7c-0.7,0.8-1.6,1.4-2.7,1.9
		C176,34.1,174.8,34.3,173.6,34.3z M169.8,25.9c0,0.6,0.1,1.1,0.2,1.6c0.2,0.5,0.4,1,0.7,1.4c0.3,0.4,0.7,0.7,1.2,1s1,0.4,1.7,0.4
		c0.7,0,1.2-0.1,1.7-0.4c0.5-0.3,0.9-0.6,1.2-1c0.3-0.4,0.5-0.9,0.7-1.4c0.1-0.5,0.2-1.1,0.2-1.6c0-0.6-0.1-1.1-0.2-1.6
		c-0.2-0.5-0.4-1-0.7-1.4c-0.3-0.4-0.7-0.7-1.2-1c-0.5-0.2-1-0.4-1.7-0.4c-0.7,0-1.2,0.1-1.7,0.4c-0.5,0.2-0.9,0.6-1.2,1
		c-0.3,0.4-0.5,0.9-0.7,1.4C169.9,24.8,169.8,25.4,169.8,25.9z"/>
	<path class="st8" d="M183.6,34.2V17.6h7.6c0.8,0,1.6,0.2,2.2,0.5c0.7,0.3,1.3,0.8,1.8,1.3c0.5,0.5,0.9,1.2,1.2,1.8
		c0.3,0.7,0.4,1.4,0.4,2.1c0,1-0.2,1.9-0.6,2.7c-0.4,0.8-1,1.5-1.7,2l3.5,6.1h-5.1l-2.9-5.1h-1.7v5.1H183.6z M188.1,25.1h2.9
		c0.3,0,0.5-0.2,0.8-0.5c0.2-0.3,0.4-0.7,0.4-1.3c0-0.6-0.1-1-0.4-1.3c-0.3-0.3-0.6-0.5-0.8-0.5h-2.8V25.1z"/>
	<path class="st8" d="M211.4,34.2v-8.7l-2.8,6.1h-2.4l-2.8-6.1v8.7h-4.5V17.6h5l3.6,7.8l3.6-7.8h4.9v16.5H211.4z"/>
	<path class="st8" d="M222.7,17.6h4.1l5.7,16.5H228l-1-3.2h-4.4l-1,3.2h-4.6L222.7,17.6z M226.2,27.9l-1.5-5.1l-1.5,5.1H226.2z"/>
	<path class="st8" d="M237.7,34.2V17.6h6.4c1.4,0,2.6,0.2,3.6,0.7c1,0.4,1.9,1,2.6,1.8c0.7,0.7,1.2,1.6,1.6,2.6
		c0.4,1,0.5,2.1,0.5,3.2c0,1.3-0.2,2.4-0.6,3.4c-0.4,1-1,1.9-1.7,2.6c-0.7,0.7-1.6,1.3-2.6,1.7c-1,0.4-2.2,0.6-3.4,0.6H237.7z
		 M247.8,25.9c0-0.6-0.1-1.2-0.3-1.7c-0.2-0.5-0.4-1-0.7-1.4c-0.3-0.4-0.7-0.7-1.2-0.9c-0.5-0.2-1-0.3-1.6-0.3h-1.8v8.6h1.8
		c0.6,0,1.1-0.1,1.6-0.3c0.5-0.2,0.9-0.5,1.2-0.9c0.3-0.4,0.6-0.8,0.7-1.4C247.7,27.1,247.8,26.5,247.8,25.9z"/>
	<path class="st8" d="M265.8,30.2v4H254V17.6h11.6v4h-7v2.3h6v3.7h-6v2.6H265.8z"/>
	<path class="st8" d="M272.4,34.2V17.6h4.5v16.5H272.4z"/>
	<path class="st8" d="M283.9,26v8.1h-4.5V17.6h3.5l6.6,8.4v-8.4h4.5v16.5h-3.6L283.9,26z"/>
	<path class="st8" d="M296.5,34.2V17.6h6.4c1.4,0,2.6,0.2,3.6,0.7c1,0.4,1.9,1,2.6,1.8c0.7,0.7,1.2,1.6,1.6,2.6
		c0.4,1,0.5,2.1,0.5,3.2c0,1.3-0.2,2.4-0.6,3.4c-0.4,1-1,1.9-1.7,2.6c-0.7,0.7-1.6,1.3-2.6,1.7c-1,0.4-2.2,0.6-3.4,0.6H296.5z
		 M306.6,25.9c0-0.6-0.1-1.2-0.3-1.7c-0.2-0.5-0.4-1-0.7-1.4c-0.3-0.4-0.7-0.7-1.2-0.9c-0.5-0.2-1-0.3-1.6-0.3h-1.8v8.6h1.8
		c0.6,0,1.1-0.1,1.6-0.3c0.5-0.2,0.9-0.5,1.2-0.9c0.3-0.4,0.6-0.8,0.7-1.4C306.6,27.1,306.6,26.5,306.6,25.9z"/>
	<path class="st8" d="M312.8,34.2V17.6h4.5v16.5H312.8z"/>
	<path class="st8" d="M318.9,25.7c0-1,0.2-2,0.6-3c0.4-1,0.9-1.9,1.7-2.6c0.7-0.8,1.6-1.4,2.7-1.9c1-0.5,2.2-0.7,3.6-0.7
		c1.6,0,3,0.3,4.2,1c1.2,0.7,2,1.5,2.6,2.6l-3.5,2.5c-0.2-0.4-0.4-0.7-0.6-1c-0.3-0.3-0.5-0.5-0.9-0.6c-0.3-0.2-0.6-0.3-1-0.3
		c-0.3-0.1-0.7-0.1-1-0.1c-0.7,0-1.2,0.1-1.7,0.4c-0.5,0.3-0.9,0.6-1.2,1c-0.3,0.4-0.5,0.9-0.7,1.4c-0.1,0.5-0.2,1-0.2,1.5
		c0,0.6,0.1,1.1,0.3,1.7c0.2,0.5,0.4,1,0.7,1.4c0.3,0.4,0.7,0.7,1.2,1c0.5,0.2,1,0.4,1.6,0.4c0.3,0,0.6,0,1-0.1
		c0.3-0.1,0.6-0.2,0.9-0.3c0.3-0.2,0.6-0.4,0.8-0.6c0.2-0.3,0.4-0.6,0.6-0.9l3.7,2.2c-0.2,0.6-0.6,1.2-1.1,1.6
		c-0.5,0.5-1.1,0.9-1.7,1.2c-0.6,0.3-1.3,0.6-2.1,0.7c-0.7,0.2-1.5,0.3-2.2,0.3c-1.2,0-2.4-0.2-3.4-0.7c-1-0.5-1.9-1.1-2.6-1.9
		c-0.7-0.8-1.3-1.7-1.7-2.8C319.1,27.8,318.9,26.8,318.9,25.7z"/>
	<path class="st8" d="M339.6,17.6h4.1l5.7,16.5h-4.6l-1-3.2h-4.4l-1,3.2h-4.6L339.6,17.6z M343.1,27.9l-1.5-5.1l-1.5,5.1H343.1z"/>
	<path class="st8" d="M350.4,34.2V17.6h6.4c1.4,0,2.6,0.2,3.6,0.7s1.9,1,2.6,1.8c0.7,0.7,1.2,1.6,1.6,2.6c0.4,1,0.5,2.1,0.5,3.2
		c0,1.3-0.2,2.4-0.6,3.4c-0.4,1-1,1.9-1.7,2.6c-0.7,0.7-1.6,1.3-2.6,1.7c-1,0.4-2.2,0.6-3.4,0.6H350.4z M360.5,25.9
		c0-0.6-0.1-1.2-0.3-1.7c-0.2-0.5-0.4-1-0.7-1.4c-0.3-0.4-0.7-0.7-1.2-0.9c-0.5-0.2-1-0.3-1.6-0.3H355v8.6h1.8
		c0.6,0,1.1-0.1,1.6-0.3c0.5-0.2,0.9-0.5,1.2-0.9c0.3-0.4,0.6-0.8,0.7-1.4C360.4,27.1,360.5,26.5,360.5,25.9z"/>
	<path class="st8" d="M374.2,34.3c-1.3,0-2.4-0.2-3.4-0.7c-1-0.5-1.9-1.1-2.6-1.9c-0.7-0.8-1.3-1.7-1.7-2.7c-0.4-1-0.6-2.1-0.6-3.1
		c0-1.1,0.2-2.1,0.6-3.1c0.4-1,1-1.9,1.8-2.7c0.8-0.8,1.6-1.4,2.7-1.8c1-0.5,2.2-0.7,3.4-0.7c1.3,0,2.4,0.2,3.4,0.7
		c1,0.5,1.9,1.1,2.6,1.9c0.7,0.8,1.3,1.7,1.7,2.7c0.4,1,0.6,2,0.6,3.1c0,1.1-0.2,2.1-0.6,3.1c-0.4,1-1,1.9-1.7,2.7
		c-0.7,0.8-1.6,1.4-2.7,1.9C376.5,34.1,375.4,34.3,374.2,34.3z M370.4,25.9c0,0.6,0.1,1.1,0.2,1.6c0.2,0.5,0.4,1,0.7,1.4
		s0.7,0.7,1.2,1c0.5,0.2,1,0.4,1.7,0.4c0.7,0,1.2-0.1,1.7-0.4c0.5-0.3,0.9-0.6,1.2-1c0.3-0.4,0.5-0.9,0.7-1.4
		c0.1-0.5,0.2-1.1,0.2-1.6c0-0.6-0.1-1.1-0.2-1.6c-0.2-0.5-0.4-1-0.7-1.4c-0.3-0.4-0.7-0.7-1.2-1c-0.5-0.2-1-0.4-1.7-0.4
		c-0.7,0-1.2,0.1-1.7,0.4c-0.5,0.2-0.9,0.6-1.2,1c-0.3,0.4-0.5,0.9-0.7,1.4C370.5,24.8,370.4,25.4,370.4,25.9z"/>
	<path class="st8" d="M384.2,34.2V17.6h7.6c0.8,0,1.6,0.2,2.2,0.5c0.7,0.3,1.3,0.8,1.8,1.3c0.5,0.5,0.9,1.2,1.2,1.8
		c0.3,0.7,0.4,1.4,0.4,2.1c0,1-0.2,1.9-0.6,2.7s-1,1.5-1.7,2l3.5,6.1h-5.1l-2.9-5.1h-1.7v5.1H384.2z M388.7,25.1h2.9
		c0.3,0,0.5-0.2,0.8-0.5c0.2-0.3,0.4-0.7,0.4-1.3c0-0.6-0.1-1-0.4-1.3c-0.3-0.3-0.6-0.5-0.8-0.5h-2.8V25.1z"/>
	<path class="st8" d="M411.3,30.2v4h-11.8V17.6h11.6v4h-7v2.3h6v3.7h-6v2.6H411.3z"/>
	<path class="st8" d="M423,23c-0.5-0.3-0.9-0.5-1.4-0.7c-0.4-0.2-0.9-0.4-1.4-0.5c-0.5-0.2-1-0.2-1.5-0.2c-0.4,0-0.7,0.1-1,0.2
		c-0.2,0.1-0.4,0.3-0.4,0.6c0,0.2,0.1,0.4,0.2,0.5c0.1,0.1,0.3,0.3,0.6,0.4c0.3,0.1,0.6,0.2,1,0.3c0.4,0.1,0.8,0.2,1.3,0.4
		c0.8,0.2,1.4,0.5,2.1,0.8c0.6,0.3,1.1,0.6,1.6,1s0.8,0.8,1,1.4c0.2,0.5,0.4,1.2,0.4,2c0,1-0.2,1.8-0.5,2.5
		c-0.4,0.7-0.8,1.2-1.4,1.6c-0.6,0.4-1.3,0.7-2,0.9c-0.8,0.2-1.5,0.3-2.3,0.3c-0.6,0-1.2,0-1.9-0.1c-0.6-0.1-1.3-0.2-1.9-0.4
		c-0.6-0.2-1.2-0.4-1.8-0.6c-0.6-0.2-1.1-0.5-1.6-0.8l2-4c0.5,0.3,1.1,0.6,1.7,0.9c0.5,0.2,1.1,0.4,1.7,0.6c0.6,0.2,1.3,0.3,1.9,0.3
		c0.5,0,0.8-0.1,1-0.2c0.2-0.1,0.3-0.3,0.3-0.5c0-0.2-0.1-0.4-0.3-0.6c-0.2-0.2-0.5-0.3-0.8-0.4c-0.3-0.1-0.7-0.2-1.2-0.4
		c-0.4-0.1-0.9-0.3-1.4-0.4c-0.7-0.2-1.4-0.5-1.9-0.8c-0.5-0.3-1-0.6-1.3-1c-0.3-0.4-0.6-0.8-0.8-1.2c-0.2-0.5-0.2-1-0.2-1.6
		c0-0.9,0.2-1.7,0.5-2.4c0.3-0.7,0.8-1.3,1.4-1.7c0.6-0.5,1.2-0.8,2-1.1c0.7-0.2,1.5-0.4,2.3-0.4c0.6,0,1.2,0.1,1.8,0.2
		c0.6,0.1,1.1,0.3,1.7,0.4c0.5,0.2,1,0.4,1.5,0.6c0.5,0.2,0.9,0.4,1.3,0.6L423,23z"/>
	<path class="st8" d="M431.9,34.2V17.6h6.4c1.4,0,2.6,0.2,3.6,0.7c1,0.4,1.9,1,2.6,1.8c0.7,0.7,1.2,1.6,1.6,2.6
		c0.4,1,0.5,2.1,0.5,3.2c0,1.3-0.2,2.4-0.6,3.4c-0.4,1-1,1.9-1.7,2.6c-0.7,0.7-1.6,1.3-2.6,1.7c-1,0.4-2.2,0.6-3.4,0.6H431.9z
		 M441.9,25.9c0-0.6-0.1-1.2-0.3-1.7c-0.2-0.5-0.4-1-0.7-1.4c-0.3-0.4-0.7-0.7-1.2-0.9c-0.5-0.2-1-0.3-1.6-0.3h-1.8v8.6h1.8
		c0.6,0,1.1-0.1,1.6-0.3c0.5-0.2,0.9-0.5,1.2-0.9c0.3-0.4,0.6-0.8,0.7-1.4C441.9,27.1,441.9,26.5,441.9,25.9z"/>
	<path class="st8" d="M459.9,30.2v4h-11.8V17.6h11.6v4h-7v2.3h6v3.7h-6v2.6H459.9z"/>
	<path class="st8" d="M109.4,73V56.8l-5.2,11.4h-4.5l-5.2-11.4V73h-8.5V42.2h9.2l6.6,14.5l6.7-14.5h9.2V73H109.4z"/>
	<path class="st8" d="M136.2,73.3c-2.3,0-4.5-0.4-6.4-1.3c-1.9-0.9-3.5-2.1-4.9-3.5c-1.4-1.5-2.4-3.1-3.2-5
		c-0.8-1.9-1.1-3.8-1.1-5.8c0-2,0.4-4,1.2-5.9c0.8-1.9,1.9-3.5,3.3-5c1.4-1.4,3.1-2.6,5-3.4c1.9-0.9,4-1.3,6.3-1.3
		c2.3,0,4.5,0.4,6.4,1.3c1.9,0.9,3.5,2.1,4.9,3.6c1.4,1.5,2.4,3.2,3.1,5c0.7,1.9,1.1,3.8,1.1,5.8c0,2-0.4,4-1.2,5.8
		c-0.8,1.9-1.9,3.5-3.3,4.9c-1.4,1.4-3,2.6-5,3.4C140.6,72.8,138.5,73.3,136.2,73.3z M129.3,57.6c0,1,0.1,2,0.4,3
		c0.3,1,0.7,1.8,1.3,2.6c0.6,0.8,1.3,1.4,2.2,1.8c0.9,0.5,1.9,0.7,3.1,0.7s2.3-0.2,3.2-0.7c0.9-0.5,1.6-1.1,2.2-1.9
		c0.6-0.8,1-1.6,1.3-2.6c0.3-1,0.4-2,0.4-3c0-1-0.1-2-0.4-3c-0.3-1-0.7-1.8-1.3-2.6c-0.6-0.7-1.3-1.3-2.2-1.8
		c-0.9-0.4-1.9-0.7-3.1-0.7c-1.2,0-2.3,0.2-3.1,0.7c-0.9,0.5-1.6,1.1-2.2,1.8c-0.6,0.8-1,1.6-1.3,2.6
		C129.4,55.6,129.3,56.6,129.3,57.6z"/>
	<path class="st8" d="M163.3,57.9V73h-8.5V42.2h6.6l12.4,15.7V42.2h8.5V73h-6.7L163.3,57.9z"/>
	<path class="st8" d="M186.8,73V42.2h8.5V73H186.8z"/>
	<path class="st8" d="M223.8,49.6h-8.8V73h-8.5V49.6h-8.9v-7.4h26.2V49.6z"/>
	<path class="st8" d="M239.5,73.3c-2.3,0-4.5-0.4-6.4-1.3c-1.9-0.9-3.5-2.1-4.9-3.5c-1.4-1.5-2.4-3.1-3.2-5
		c-0.8-1.9-1.1-3.8-1.1-5.8c0-2,0.4-4,1.2-5.9c0.8-1.9,1.9-3.5,3.3-5c1.4-1.4,3.1-2.6,5-3.4c1.9-0.9,4-1.3,6.3-1.3
		c2.3,0,4.5,0.4,6.4,1.3c1.9,0.9,3.5,2.1,4.9,3.6c1.4,1.5,2.4,3.2,3.1,5c0.7,1.9,1.1,3.8,1.1,5.8c0,2-0.4,4-1.2,5.8
		c-0.8,1.9-1.9,3.5-3.3,4.9c-1.4,1.4-3,2.6-5,3.4C243.9,72.8,241.8,73.3,239.5,73.3z M232.6,57.6c0,1,0.1,2,0.4,3
		c0.3,1,0.7,1.8,1.3,2.6c0.6,0.8,1.3,1.4,2.2,1.8c0.9,0.5,1.9,0.7,3.1,0.7c1.2,0,2.3-0.2,3.2-0.7c0.9-0.5,1.6-1.1,2.2-1.9
		c0.6-0.8,1-1.6,1.3-2.6c0.3-1,0.4-2,0.4-3c0-1-0.1-2-0.4-3c-0.3-1-0.7-1.8-1.3-2.6c-0.6-0.7-1.3-1.3-2.2-1.8
		c-0.9-0.4-1.9-0.7-3.1-0.7c-1.2,0-2.3,0.2-3.1,0.7c-0.9,0.5-1.6,1.1-2.2,1.8c-0.6,0.8-1,1.6-1.3,2.6
		C232.7,55.6,232.6,56.6,232.6,57.6z"/>
	<path class="st8" d="M258.1,73V42.2h14.1c1.5,0,2.9,0.3,4.2,0.9c1.3,0.6,2.4,1.4,3.3,2.4c0.9,1,1.6,2.1,2.1,3.4
		c0.5,1.3,0.8,2.6,0.8,3.9c0,1.8-0.4,3.5-1.2,5c-0.8,1.5-1.9,2.8-3.3,3.8l6.5,11.3h-9.5l-5.4-9.5h-3.2V73H258.1z M266.6,56.2h5.3
		c0.5,0,1-0.3,1.5-0.9c0.4-0.6,0.7-1.4,0.7-2.4c0-1.1-0.3-1.9-0.8-2.5c-0.5-0.6-1-0.8-1.6-0.8h-5.1V56.2z"/>
	<path class="st8" d="M294.6,42.2h7.7L313,73h-8.6l-1.9-6h-8.2l-1.8,6h-8.6L294.6,42.2z M301.2,61.3l-2.7-9.5l-2.9,9.5H301.2z"/>
	<path class="st8" d="M338.1,73V56.8L333,68.2h-4.5l-5.2-11.4V73h-8.5V42.2h9.2l6.6,14.5l6.7-14.5h9.2V73H338.1z"/>
	<path class="st8" d="M373.1,65.6V73h-21.9V42.2h21.6v7.4h-13.1v4.3h11.2v6.9h-11.2v4.9H373.1z"/>
	<path class="st8" d="M384.8,57.9V73h-8.5V42.2h6.6l12.4,15.7V42.2h8.5V73H397L384.8,57.9z"/>
	<path class="st8" d="M432.3,49.6h-8.8V73H415V49.6h-8.9v-7.4h26.2V49.6z"/>
	<path class="st8" d="M448,73.3c-2.3,0-4.5-0.4-6.4-1.3c-1.9-0.9-3.5-2.1-4.9-3.5c-1.4-1.5-2.4-3.1-3.2-5c-0.8-1.9-1.1-3.8-1.1-5.8
		c0-2,0.4-4,1.2-5.9c0.8-1.9,1.9-3.5,3.3-5c1.4-1.4,3.1-2.6,5-3.4c1.9-0.9,4-1.3,6.3-1.3c2.3,0,4.5,0.4,6.4,1.3
		c1.9,0.9,3.5,2.1,4.9,3.6c1.4,1.5,2.4,3.2,3.1,5c0.7,1.9,1.1,3.8,1.1,5.8c0,2-0.4,4-1.2,5.8c-0.8,1.9-1.9,3.5-3.3,4.9
		c-1.4,1.4-3,2.6-5,3.4C452.4,72.8,450.3,73.3,448,73.3z M441,57.6c0,1,0.1,2,0.4,3c0.3,1,0.7,1.8,1.3,2.6c0.6,0.8,1.3,1.4,2.2,1.8
		c0.9,0.5,1.9,0.7,3.1,0.7c1.2,0,2.3-0.2,3.2-0.7c0.9-0.5,1.6-1.1,2.2-1.9c0.6-0.8,1-1.6,1.3-2.6c0.3-1,0.4-2,0.4-3c0-1-0.1-2-0.4-3
		c-0.3-1-0.7-1.8-1.3-2.6c-0.6-0.7-1.3-1.3-2.2-1.8c-0.9-0.4-1.9-0.7-3.1-0.7c-1.2,0-2.3,0.2-3.1,0.7c-0.9,0.5-1.6,1.1-2.2,1.8
		c-0.6,0.8-1,1.6-1.3,2.6C441.2,55.6,441,56.6,441,57.6z"/>
</g>
</svg>
